<svg width="100%" height="100%" viewBox="0 0 1193 391" fill="none" xmlns="http://www.w3.org/2000/svg">
  <path d="M195.095 3.52853H195.102C300.901 3.52853 386.668 89.2955 386.668 195.095V195.102C386.668 300.901 300.901 386.668 195.102 386.668H195.095C89.2955 386.668 3.52853 300.901 3.52853 195.102V195.095C3.52853 89.2955 89.2955 3.52853 195.095 3.52853Z" fill="#111111" stroke="#111111" stroke-width="7.05706"></path>
  <path d="M195.102 0H195.095C87.3468 0 0 87.3468 0 195.095V195.102C0 302.85 87.3468 390.196 195.095 390.196H195.102C302.85 390.196 390.196 302.85 390.196 195.102V195.095C390.196 87.3468 302.85 0 195.102 0Z" fill="url(#_R_266r5fdb_-radial)" fill-opacity="0.7"></path>
  <path d="M195.095 3.57318H195.102C300.876 3.57318 386.623 89.3202 386.623 195.095V195.102C386.623 300.876 300.876 386.623 195.102 386.623H195.095C89.3202 386.623 3.5732 300.876 3.5732 195.102V195.095C3.5732 89.3202 89.3202 3.57318 195.095 3.57318Z" stroke="url(#_R_266r5fdb_-linear)" stroke-width="7.14639"></path>
  <path fill-rule="evenodd" clip-rule="evenodd" d="M152.408 104.362H148.251L145.555 107.527L75.9708 189.259L71.0037 195.094L75.9708 200.928L145.555 282.66L148.251 285.826H152.408H277.684H286.684V276.826V224.867H268.684V267.826H172.09L229.903 200.981L234.995 195.094L229.903 189.206L172.09 122.362H268.684V165.321H286.684V113.362V104.362H277.684H152.408ZM152.461 127.183L94.6436 195.094L152.461 263.005L211.196 195.094L152.461 127.183Z" fill="currentColor"></path>
  <path d="M590.182 121.547V106H476.003V276.056H590.182V260.507H493.979V196.858H582.896V181.31H493.979V121.547H590.182Z" fill="currentColor"></path>
  <path d="M635.491 267.796C629.902 262.292 627.108 253.22 627.108 240.587V170.378H605.728V154.829H627.108V118.146H644.598V154.829H676.181V170.378H644.598V240.587C644.598 247.716 646.016 252.818 648.853 255.892C651.683 258.97 656.42 260.507 663.061 260.507H676.181V276.056H663.061C650.268 276.056 641.076 273.303 635.491 267.796Z" fill="currentColor"></path>
  <path d="M701.445 106H718.938V171.593C722.662 165.926 727.441 161.39 733.271 157.989C739.103 154.587 745.01 152.887 751.005 152.887H768.011C779.185 152.887 788.212 156.694 795.098 164.305C801.98 171.92 805.422 181.879 805.422 194.186V276.056H787.929V193.701C787.929 186.253 786.068 180.179 782.344 175.479C778.617 170.784 773.678 168.435 767.524 168.435H751.49C743.875 168.435 736.952 171.392 730.72 177.302C724.483 183.215 720.555 190.785 718.938 200.017V276.056H701.445V106Z" fill="currentColor"></path>
  <path d="M842.587 265.974C834.327 257.956 830.198 247.31 830.198 234.027V199.288C830.198 185.361 834.327 174.143 842.587 165.64C850.848 157.138 861.781 152.887 875.384 152.887H895.304C908.26 152.887 918.708 157.017 926.645 165.276C934.577 173.536 938.549 184.469 938.549 198.073V219.451H847.689V234.027C847.689 242.451 850.24 249.295 855.342 254.555C860.443 259.821 867.124 262.451 875.384 262.451H893.848C901.945 262.451 908.505 260.227 913.525 255.771C918.543 251.318 921.057 245.366 921.057 237.915H938.061C938.061 249.903 934.012 259.578 925.916 266.945C917.813 274.318 907.126 278 893.848 278H875.384C861.781 278 850.848 273.991 842.587 265.974ZM921.057 204.389V198.073C921.057 189.168 918.708 182.001 914.012 176.573C909.312 171.148 903.08 168.435 895.304 168.435H875.384C867.124 168.435 860.443 171.27 855.342 176.937C850.24 182.608 847.689 190.056 847.689 199.288V204.389H921.057Z" fill="currentColor"></path>
  <path d="M963.327 154.829H980.333V172.807C984.056 166.976 988.916 162.202 994.908 158.474C1000.9 154.75 1006.89 152.887 1012.89 152.887H1029.41C1040.58 152.887 1049.61 156.694 1056.49 164.305C1063.37 171.919 1066.82 181.879 1066.82 194.186V276.056H1049.33V193.7C1049.33 186.253 1047.46 180.178 1043.74 175.479C1040.01 170.784 1035.07 168.435 1028.92 168.435H1013.37C1005.76 168.435 998.834 171.434 992.602 177.423C986.365 183.417 982.437 191.111 980.82 200.502V276.056H963.327V154.829Z" fill="currentColor"></path>
  <path d="M1099.25 268.768C1092.2 262.615 1088.68 254.355 1088.68 243.988V236.213C1088.68 226.01 1092.33 217.834 1099.61 211.677C1106.9 205.525 1116.53 202.445 1128.52 202.445H1144.07C1149.41 202.445 1154.92 203.258 1160.59 204.875C1166.26 206.496 1171.12 208.682 1175.17 211.435V191.271C1175.17 184.469 1173.06 178.922 1168.85 174.629C1164.64 170.34 1159.05 168.191 1152.09 168.191H1132.65C1125.69 168.191 1120.1 169.813 1115.89 173.051C1111.68 176.292 1109.57 180.581 1109.57 185.926H1092.08C1092.08 176.048 1095.8 168.07 1103.26 161.996C1110.71 155.923 1120.5 152.887 1132.65 152.887H1152.09C1164.07 152.887 1173.75 156.409 1181.12 163.454C1188.48 170.5 1192.17 179.772 1192.17 191.271V276.056H1175.65V259.05C1171.92 264.88 1167.03 269.496 1160.95 272.898C1154.88 276.299 1148.6 278 1142.13 278H1127.55C1115.73 278 1106.29 274.925 1099.25 268.768ZM1142.61 262.694C1150.22 262.694 1157.03 260.347 1163.02 255.649C1169.01 250.953 1173.06 244.717 1175.17 236.943V227.954C1171.92 224.879 1167.43 222.409 1161.68 220.544C1155.93 218.685 1150.06 217.751 1144.07 217.751H1128.52C1121.88 217.751 1116.5 219.451 1112.37 222.852C1108.23 226.254 1106.17 230.709 1106.17 236.213V243.988C1106.17 249.659 1108.11 254.191 1112 257.592C1115.89 260.993 1121.07 262.694 1127.55 262.694H1142.61Z" fill="currentColor"></path>
  <defs>
    <radialGradient id="_R_266r5fdb_-radial" cx="0" cy="0" r="1" gradientUnits="userSpaceOnUse" gradientTransform="translate(195.517 56.9737) rotate(90) scale(411.352 289.55)">
      <stop offset="0.03125" stop-color="#3A3A3A"></stop>
      <stop offset="1" stop-color="#1C1C1C"></stop>
    </radialGradient>
    <linearGradient id="_R_266r5fdb_-linear" x1="195.098" y1="-3.68114" x2="195.098" y2="393.878" gradientUnits="userSpaceOnUse">
      <stop stop-color="white"></stop>
      <stop offset="1" stop-color="#111111"></stop>
    </linearGradient>
  </defs>
</svg>