<svg width="100%" height="100%" viewBox="0 0 957 276" fill="none" xmlns="http://www.w3.org/2000/svg"><mask id="_R_2a6r5fdb_" style="mask-type:luminance" maskUnits="userSpaceOnUse" x="272" y="95" width="685" height="104"><path d="M272 95H957V198.341H272V95Z" fill="currentColor"></path></mask><g mask="url(#_R_2a6r5fdb_)"><path d="M328.099 114.192L317.175 120.687C315.698 118.03 313.631 115.668 311.269 113.897C305.955 110.944 299.459 111.534 294.44 115.373C292.078 117.144 290.601 120.097 290.897 123.345C290.897 127.774 294.144 131.022 300.64 133.679L309.498 137.222C315.698 139.289 321.013 143.127 325.442 147.851C328.985 152.28 330.756 157.595 330.461 163.205C330.756 170.881 327.804 178.263 322.489 183.282C317.175 188.597 309.498 191.55 302.116 191.254C295.03 191.55 288.239 189.187 282.925 184.463C277.61 179.149 274.362 172.358 273.476 165.272L287.058 162.319C287.353 166.157 288.239 169.996 290.306 173.244C295.621 179.739 305.364 180.92 311.86 175.606L312.746 174.72C315.403 171.767 317.175 167.929 316.879 164.091C316.879 162.614 316.584 160.843 316.289 159.366C315.698 157.89 315.108 156.414 313.927 155.528C312.746 154.347 311.565 153.166 310.088 151.985C308.317 150.804 306.25 149.918 304.183 149.032L295.916 145.489C283.81 140.47 277.61 132.793 277.61 122.754C277.61 116.259 280.267 110.058 285.287 105.925C290.601 101.2 297.392 98.8384 304.478 99.1336C314.222 99.4289 322.194 104.448 328.099 114.192ZM389.513 154.052V190.073H375.931V101.2H390.989C396.599 100.905 402.209 101.496 407.819 102.677C411.657 103.858 415.2 105.629 417.858 108.582C422.877 113.601 425.83 120.392 425.534 127.478C425.83 134.86 422.877 141.946 417.267 146.966C411.067 151.985 403.095 154.642 395.123 154.347H389.513V154.052ZM389.513 141.651H394.532C406.933 141.651 413.134 136.927 413.134 127.478C413.134 118.325 406.638 113.601 393.942 113.601H389.513V141.651ZM610.071 152.28L637.53 190.073H620.996L595.603 153.756H593.241V190.073H579.659V101.2H595.308C607.119 101.2 615.681 103.267 620.7 107.696C626.31 112.42 629.558 119.802 629.263 127.183C629.263 133.088 627.491 138.698 623.948 143.422C620.7 147.851 615.681 151.099 610.071 152.28ZM593.241 141.946H597.375C610.071 141.946 616.567 137.222 616.567 127.478C616.567 118.325 610.366 113.897 597.966 113.897H593.241V141.946ZM703.963 113.601V190.073H690.381V113.601H670.009L660.56 100.905H733.784L724.336 113.601H703.963ZM878.166 190.073V95L943.123 162.909V101.2H956.41V195.683L891.453 127.774V190.073H878.166ZM822.657 190.073H837.42L794.903 95.5905L750.91 190.073H765.377L794.903 125.707L816.752 176.491L822.657 190.073ZM523.56 190.073H538.028L495.806 95.5905L451.517 190.073H465.985L495.511 125.707L517.36 176.491L523.56 190.073Z" fill="currentColor"></path></g><path d="M29.9416 147.663L15.482 162.444L57.8384 155.579L29.9416 147.663ZM8.93866 108.754L28.5686 145.239L35.112 121.168L8.93866 108.754ZM12.0351 165.891L11.0127 166.943L0 209.942L56.4362 158.325L12.0351 165.891ZM39.2308 65.0535L7.91626 105.307L41.6553 121.168L79.8637 128.384L39.2308 65.0535ZM10.6621 163.145L24.4499 149.387L6.19279 152.804L10.6621 163.145ZM26.1733 44.0506L6.89387 101.889L37.8578 62.3077L26.1733 44.0506ZM39.5813 60.2337L86.0565 0.350525L26.4946 42.3272L27.8676 41.6553L39.5813 60.2337ZM60.9348 275.346V158.325L0.350536 213.389L60.9348 275.346ZM5.84226 108.754V150.058L25.8228 146.29L5.84226 108.754ZM150.058 147.663L122.541 155.579L164.869 162.444L150.058 147.663ZM151.431 145.239L171.061 108.754L144.888 121.168L151.431 145.239ZM169.338 166.943L167.965 165.891L123.564 158.325L180 209.942L169.338 166.943Z" fill="currentColor"></path><path d="M96.3681 129.406L139.046 62.629L90.1753 0L41.3048 62.629L83.6319 129.406L70.5453 166.241L90.1753 176.904L109.805 166.241L96.3681 129.406Z" fill="currentColor"></path><path d="M140.769 65.0535L100.166 128.384L138.695 121.168L172.084 105.307L140.769 65.0535ZM173.807 152.804L155.579 149.387L169.338 163.145L173.807 152.804ZM173.135 101.889L154.206 44.0506L142.493 62.3077L173.135 101.889ZM152.483 41.6553L153.505 42.3272L93.9727 0.350525L140.419 60.2337L152.483 41.6553ZM119.094 275.346L179.679 213.389L119.094 158.325V275.346ZM174.508 150.058V108.754L154.206 146.29L174.508 150.058Z" fill="currentColor"></path></svg>