<svg width="759" height="151" viewBox="0 0 759 151" fill="none" xmlns="http://www.w3.org/2000/svg">
<path fill-rule="evenodd" clip-rule="evenodd" d="M291.782 54.5032C281.696 44.0034 269.537 38.7519 255.309 38.7519C239.558 38.7519 227.467 44.5521 219.042 56.159V0H196.661V145.066H219.042V130.145C227.467 141.89 239.558 147.758 255.309 147.758C269.537 147.758 281.696 142.475 291.782 131.904C301.866 121.336 306.91 108.59 306.91 93.2551C306.91 77.9203 301.866 65.0029 291.782 54.5032ZM251.784 126.413C242.388 126.413 234.584 123.273 228.367 116.985C222.151 110.698 219.042 102.787 219.042 93.2551C219.042 83.7237 222.151 75.8158 228.367 69.5282C234.584 63.2438 242.392 60.1 251.784 60.1C261.177 60.1 268.985 63.2438 275.201 69.5282C281.418 75.8158 284.526 83.7205 284.526 93.2551C284.526 102.79 281.418 110.701 275.201 116.985C268.985 123.273 261.18 126.413 251.784 126.413Z" fill="white"/>
<path fill-rule="evenodd" clip-rule="evenodd" d="M427.724 41.4471H405.343V56.1558C396.915 44.5521 384.827 38.7487 369.076 38.7487C354.845 38.7487 342.686 44.0002 332.603 54.5C322.516 64.9997 317.475 78.0526 317.475 93.2519C317.475 108.451 322.516 121.333 332.603 131.901C342.686 142.471 354.845 147.755 369.076 147.755C384.827 147.755 396.915 141.887 405.343 130.141V145.063H427.724V41.4471ZM372.601 126.413C363.205 126.413 355.4 123.273 349.184 116.985C342.967 110.698 339.859 102.787 339.859 93.2551C339.859 83.7237 342.967 75.8158 349.184 69.5282C355.4 63.2438 363.208 60.1 372.601 60.1C381.994 60.1 389.801 63.2438 396.018 69.5282C402.235 75.8158 405.343 83.7205 405.343 93.2551C405.343 102.79 402.235 110.701 396.018 116.985C389.801 123.273 381.997 126.413 372.601 126.413Z" fill="white"/>
<path d="M469.377 70.0446C469.377 73.4983 471.275 76.2289 475.074 78.2301C478.873 80.2345 483.499 81.9613 488.96 83.4106C494.415 84.8631 499.908 86.5544 505.434 88.4878C510.957 90.4244 515.621 93.7038 519.423 98.3323C523.222 102.964 525.123 108.797 525.123 115.843C525.123 125.79 521.289 133.598 513.623 139.26C505.957 144.928 496.319 147.755 484.716 147.755C474.49 147.755 465.717 145.612 458.397 141.332C451.073 137.052 445.757 131.11 442.439 123.508L461.712 112.318C465.304 122.266 472.97 127.24 484.716 127.24C496.461 127.24 502.329 123.373 502.329 115.633C502.329 112.318 500.428 109.623 496.632 107.551C492.83 105.478 488.205 103.716 482.747 102.264C477.289 100.814 471.795 99.1231 466.272 97.1865C460.747 95.2531 456.083 92.0415 452.283 87.5518C448.481 83.062 446.583 77.3651 446.583 70.4545C446.583 60.9199 450.211 53.2541 457.464 47.4506C464.717 41.6472 473.732 38.7455 484.509 38.7455C493.072 38.7455 500.706 40.6466 507.41 44.4456C514.11 48.2479 519.255 53.5316 522.848 60.3002L503.988 70.8709C500.396 62.9953 493.902 59.0575 484.509 59.0575C480.226 59.0575 476.633 59.9903 473.732 61.8559C470.83 63.7215 469.381 66.449 469.381 70.0414L469.377 70.0446Z" fill="white"/>
<path fill-rule="evenodd" clip-rule="evenodd" d="M566.984 120.923C561.041 116.711 557.246 110.665 555.587 102.79L555.583 102.787H638.064C638.616 98.923 638.894 95.8147 638.894 93.4617C638.894 78.2656 634.026 65.3515 624.285 54.7098C614.544 44.0712 602.075 38.7519 586.879 38.7519C570.85 38.7519 557.726 43.9712 547.504 54.3999C537.279 64.8319 532.169 77.5039 532.169 93.2551C532.169 109.006 537.35 122.03 547.711 132.32C558.072 142.613 571.68 147.758 588.535 147.758C608.566 147.758 623.695 140.231 633.92 125.171L615.477 114.393C609.535 122.963 600.623 127.243 588.742 127.243C580.175 127.243 572.923 125.138 566.984 120.923ZM616.306 84.5532H555.38C556.897 76.6808 560.422 70.4642 565.947 65.9035C571.473 61.3427 578.384 59.0639 586.673 59.0639C593.993 59.0639 600.384 61.2071 605.842 65.4871C611.297 69.7735 614.783 76.1289 616.306 84.5532Z" fill="white"/>
<path fill-rule="evenodd" clip-rule="evenodd" d="M758.468 0H736.087V56.159C727.659 44.5554 715.571 38.7519 699.82 38.7519C685.589 38.7519 673.43 44.0034 663.347 54.5032C653.26 65.0029 648.219 78.0558 648.219 93.2551C648.219 108.454 653.26 121.336 663.347 131.904C673.43 142.475 685.589 147.758 699.82 147.758C715.571 147.758 727.659 141.89 736.087 130.145V145.066H758.468V0ZM703.345 126.413C693.949 126.413 686.144 123.273 679.928 116.985C673.711 110.698 670.603 102.787 670.603 93.2551C670.603 83.7237 673.711 75.8158 679.928 69.5282C686.144 63.2438 693.952 60.1 703.345 60.1C712.737 60.1 720.545 63.2438 726.762 69.5282C732.978 75.8158 736.087 83.7205 736.087 93.2551C736.087 102.79 732.978 110.701 726.762 116.985C720.545 123.273 712.741 126.413 703.345 126.413Z" fill="white"/>
<path d="M130.109 49.6745C130.109 59.816 126.859 69.2022 121.352 76.8357C112.918 65.1417 99.1748 57.534 83.6559 57.534C63.3342 57.534 44.7038 64.777 30.2114 76.8357C11.7553 61.4815 0 38.3485 0 12.4654V3.21158H83.6527C96.4796 3.21158 108.096 8.41465 116.504 16.8228C124.906 25.2246 130.109 36.8476 130.109 49.6745Z" fill="white"/>
<path d="M130.109 103.987C130.109 116.814 124.906 128.431 116.504 136.829C108.096 145.237 96.4796 150.441 83.6527 150.441H0V141.187C0 115.304 11.7553 92.1706 30.2114 76.8325C44.7038 88.8751 63.3342 96.1246 83.6559 96.1246C99.1748 96.1246 112.909 88.5168 121.352 76.8325C126.859 84.4661 130.109 93.8522 130.109 103.987Z" fill="white" fill-opacity="0.6"/>
</svg>
