<svg width="616" height="388" viewBox="0 0 616 388" fill="none" xmlns="http://www.w3.org/2000/svg">
<path d="M21.0303 0.5H594.97C606.308 0.5 615.5 9.69194 615.5 21.0303V366.437C615.5 377.775 606.308 386.967 594.97 386.967H21.0303C9.69194 386.967 0.5 377.775 0.5 366.437V21.0303L0.506836 20.5C0.787882 9.40655 9.86909 0.5 21.0303 0.5Z" fill="#4A615D" fill-opacity="0.05" stroke="#4A615D"/>
<mask id="path-2-inside-1_1838_1203" fill="white">
<path fill-rule="evenodd" clip-rule="evenodd" d="M89.2746 34.835C86.8699 32.3443 83.9708 31.0986 80.5785 31.0986C76.8228 31.0986 73.9398 32.4745 71.9311 35.2277V21.9062H66.5947V56.3175H71.9311V52.7779C73.9398 55.5641 76.8228 56.956 80.5785 56.956C83.9708 56.956 86.8699 55.7027 89.2746 53.1952C91.679 50.6884 92.8821 47.665 92.8821 44.0273C92.8821 40.3898 91.679 37.3256 89.2746 34.835ZM79.738 51.8928C77.4977 51.8928 75.6368 51.1479 74.1545 49.6564C72.6723 48.1649 71.9311 46.2883 71.9311 44.0273C71.9311 41.7663 72.6723 39.8906 74.1545 38.399C75.6368 36.9084 77.4985 36.1626 79.738 36.1626C81.9776 36.1626 83.8392 36.9084 85.3215 38.399C86.8037 39.8906 87.5449 41.7656 87.5449 44.0273C87.5449 46.2891 86.8037 48.1656 85.3215 49.6564C83.8392 51.1479 81.9783 51.8928 79.738 51.8928ZM121.798 31.3194H116.462V34.8665C114.453 32.0682 111.57 30.6687 107.814 30.6687C104.421 30.6687 101.522 31.9351 99.1183 34.4672C96.713 36.9992 95.5108 40.147 95.5108 43.8124C95.5108 47.4778 96.713 50.5843 99.1183 53.1326C101.522 55.6818 104.421 56.956 107.814 56.956C111.57 56.956 114.453 55.541 116.462 52.7084V56.3068H121.798V31.3194ZM108.654 51.8094C106.415 51.8094 104.554 51.0521 103.071 49.5357C101.589 48.0195 100.848 46.1117 100.848 43.8132C100.848 41.5146 101.589 39.6076 103.071 38.0913C104.554 36.5758 106.416 35.8177 108.654 35.8177C110.894 35.8177 112.756 36.5758 114.238 38.0913C115.72 39.6076 116.462 41.5138 116.462 43.8132C116.462 46.1125 115.72 48.0203 114.238 49.5357C112.756 51.0521 110.895 51.8094 108.654 51.8094ZM133.788 40.1903C132.903 39.7077 132.46 39.0492 132.46 38.2164C132.46 37.3501 132.799 36.6916 133.475 36.2417C134.151 35.7918 134.989 35.5669 135.988 35.5669C138.178 35.5669 139.692 36.5165 140.53 38.4157L144.927 35.8666C144.089 34.2343 142.889 32.9602 141.327 32.0433C139.764 31.1271 137.984 30.6687 135.988 30.6687C133.475 30.6687 131.373 31.3685 129.683 32.7679C127.991 34.1674 127.146 36.016 127.146 38.3153C127.146 39.9817 127.588 41.3555 128.474 42.4382C129.36 43.5208 130.448 44.2954 131.736 44.7616C133.024 45.2286 134.305 45.6364 135.577 45.9859C136.849 46.3362 137.928 46.7612 138.814 47.2608C139.699 47.7606 140.142 48.4105 140.142 49.2099C140.142 51.0764 138.774 52.0089 136.036 52.0089C133.297 52.0089 131.51 50.8094 130.673 48.4105L126.179 51.109C126.953 52.9421 128.192 54.3751 129.9 55.4071C131.607 56.4392 133.652 56.956 136.036 56.956C138.741 56.956 140.988 56.2742 142.775 54.9074C144.563 53.5422 145.457 51.6593 145.457 49.2604C145.457 47.5613 145.013 46.1548 144.127 45.0379C143.242 43.9217 142.154 43.1309 140.866 42.6639C139.578 42.1977 138.297 41.7898 137.026 41.4396C135.752 41.0901 134.674 40.6737 133.788 40.1903ZM155.499 50.4846C154.083 49.4688 153.18 48.0109 152.785 46.1117L152.784 46.1109H172.423C172.555 45.1792 172.62 44.4296 172.62 43.8622C172.62 40.1976 171.461 37.0833 169.142 34.517C166.822 31.9514 163.853 30.6687 160.235 30.6687C156.419 30.6687 153.295 31.9273 150.861 34.4422C148.425 36.9579 147.209 40.0138 147.209 43.8124C147.209 47.6109 148.443 50.7516 150.91 53.2331C153.376 55.7153 156.617 56.956 160.63 56.956C165.399 56.956 169.001 55.1409 171.436 51.509L167.045 48.9099C165.63 50.9765 163.508 52.0087 160.679 52.0087C158.64 52.0087 156.913 51.5012 155.499 50.4846ZM167.242 41.7139H152.736C153.097 39.8154 153.936 38.3162 155.251 37.2164C156.568 36.1166 158.213 35.567 160.186 35.567C161.929 35.567 163.451 36.0839 164.751 37.116C166.049 38.1496 166.879 39.6823 167.242 41.7139ZM196.2 21.9062H201.536V56.3175H196.2V52.7779C194.191 55.5641 191.308 56.956 187.552 56.956C184.16 56.956 181.26 55.7027 178.857 53.1952C176.451 50.6884 175.249 47.6328 175.249 44.0273C175.249 40.4219 176.451 37.3256 178.857 34.835C181.26 32.3443 184.16 31.0986 187.552 31.0986C191.308 31.0986 194.191 32.4753 196.2 35.2277V21.9062ZM182.809 49.6564C184.292 51.1479 186.153 51.8928 188.393 51.8928C190.633 51.8928 192.494 51.1479 193.976 49.6564C195.459 48.1656 196.2 46.2891 196.2 44.0273C196.2 41.7656 195.459 39.8906 193.976 38.399C192.494 36.9084 190.632 36.1626 188.393 36.1626C186.154 36.1626 184.292 36.9084 182.809 38.399C181.328 39.8906 180.586 41.7663 180.586 44.0273C180.586 46.2883 181.328 48.1649 182.809 49.6564Z"/>
</mask>
<path fill-rule="evenodd" clip-rule="evenodd" d="M89.2746 34.835C86.8699 32.3443 83.9708 31.0986 80.5785 31.0986C76.8228 31.0986 73.9398 32.4745 71.9311 35.2277V21.9062H66.5947V56.3175H71.9311V52.7779C73.9398 55.5641 76.8228 56.956 80.5785 56.956C83.9708 56.956 86.8699 55.7027 89.2746 53.1952C91.679 50.6884 92.8821 47.665 92.8821 44.0273C92.8821 40.3898 91.679 37.3256 89.2746 34.835ZM79.738 51.8928C77.4977 51.8928 75.6368 51.1479 74.1545 49.6564C72.6723 48.1649 71.9311 46.2883 71.9311 44.0273C71.9311 41.7663 72.6723 39.8906 74.1545 38.399C75.6368 36.9084 77.4985 36.1626 79.738 36.1626C81.9776 36.1626 83.8392 36.9084 85.3215 38.399C86.8037 39.8906 87.5449 41.7656 87.5449 44.0273C87.5449 46.2891 86.8037 48.1656 85.3215 49.6564C83.8392 51.1479 81.9783 51.8928 79.738 51.8928ZM121.798 31.3194H116.462V34.8665C114.453 32.0682 111.57 30.6687 107.814 30.6687C104.421 30.6687 101.522 31.9351 99.1183 34.4672C96.713 36.9992 95.5108 40.147 95.5108 43.8124C95.5108 47.4778 96.713 50.5843 99.1183 53.1326C101.522 55.6818 104.421 56.956 107.814 56.956C111.57 56.956 114.453 55.541 116.462 52.7084V56.3068H121.798V31.3194ZM108.654 51.8094C106.415 51.8094 104.554 51.0521 103.071 49.5357C101.589 48.0195 100.848 46.1117 100.848 43.8132C100.848 41.5146 101.589 39.6076 103.071 38.0913C104.554 36.5758 106.416 35.8177 108.654 35.8177C110.894 35.8177 112.756 36.5758 114.238 38.0913C115.72 39.6076 116.462 41.5138 116.462 43.8132C116.462 46.1125 115.72 48.0203 114.238 49.5357C112.756 51.0521 110.895 51.8094 108.654 51.8094ZM133.788 40.1903C132.903 39.7077 132.46 39.0492 132.46 38.2164C132.46 37.3501 132.799 36.6916 133.475 36.2417C134.151 35.7918 134.989 35.5669 135.988 35.5669C138.178 35.5669 139.692 36.5165 140.53 38.4157L144.927 35.8666C144.089 34.2343 142.889 32.9602 141.327 32.0433C139.764 31.1271 137.984 30.6687 135.988 30.6687C133.475 30.6687 131.373 31.3685 129.683 32.7679C127.991 34.1674 127.146 36.016 127.146 38.3153C127.146 39.9817 127.588 41.3555 128.474 42.4382C129.36 43.5208 130.448 44.2954 131.736 44.7616C133.024 45.2286 134.305 45.6364 135.577 45.9859C136.849 46.3362 137.928 46.7612 138.814 47.2608C139.699 47.7606 140.142 48.4105 140.142 49.2099C140.142 51.0764 138.774 52.0089 136.036 52.0089C133.297 52.0089 131.51 50.8094 130.673 48.4105L126.179 51.109C126.953 52.9421 128.192 54.3751 129.9 55.4071C131.607 56.4392 133.652 56.956 136.036 56.956C138.741 56.956 140.988 56.2742 142.775 54.9074C144.563 53.5422 145.457 51.6593 145.457 49.2604C145.457 47.5613 145.013 46.1548 144.127 45.0379C143.242 43.9217 142.154 43.1309 140.866 42.6639C139.578 42.1977 138.297 41.7898 137.026 41.4396C135.752 41.0901 134.674 40.6737 133.788 40.1903ZM155.499 50.4846C154.083 49.4688 153.18 48.0109 152.785 46.1117L152.784 46.1109H172.423C172.555 45.1792 172.62 44.4296 172.62 43.8622C172.62 40.1976 171.461 37.0833 169.142 34.517C166.822 31.9514 163.853 30.6687 160.235 30.6687C156.419 30.6687 153.295 31.9273 150.861 34.4422C148.425 36.9579 147.209 40.0138 147.209 43.8124C147.209 47.6109 148.443 50.7516 150.91 53.2331C153.376 55.7153 156.617 56.956 160.63 56.956C165.399 56.956 169.001 55.1409 171.436 51.509L167.045 48.9099C165.63 50.9765 163.508 52.0087 160.679 52.0087C158.64 52.0087 156.913 51.5012 155.499 50.4846ZM167.242 41.7139H152.736C153.097 39.8154 153.936 38.3162 155.251 37.2164C156.568 36.1166 158.213 35.567 160.186 35.567C161.929 35.567 163.451 36.0839 164.751 37.116C166.049 38.1496 166.879 39.6823 167.242 41.7139ZM196.2 21.9062H201.536V56.3175H196.2V52.7779C194.191 55.5641 191.308 56.956 187.552 56.956C184.16 56.956 181.26 55.7027 178.857 53.1952C176.451 50.6884 175.249 47.6328 175.249 44.0273C175.249 40.4219 176.451 37.3256 178.857 34.835C181.26 32.3443 184.16 31.0986 187.552 31.0986C191.308 31.0986 194.191 32.4753 196.2 35.2277V21.9062ZM182.809 49.6564C184.292 51.1479 186.153 51.8928 188.393 51.8928C190.633 51.8928 192.494 51.1479 193.976 49.6564C195.459 48.1656 196.2 46.2891 196.2 44.0273C196.2 41.7656 195.459 39.8906 193.976 38.399C192.494 36.9084 190.632 36.1626 188.393 36.1626C186.154 36.1626 184.292 36.9084 182.809 38.399C181.328 39.8906 180.586 41.7663 180.586 44.0273C180.586 46.2883 181.328 48.1649 182.809 49.6564Z" fill="#4A615D" stroke="#4A615D" stroke-width="2" mask="url(#path-2-inside-1_1838_1203)"/>
<path d="M587.093 22.4111C587.499 22.4394 587.842 22.5754 588.035 22.7549C588.035 22.7549 588.037 22.7571 588.04 22.7598C588.043 22.7625 588.046 22.7664 588.051 22.7715C588.061 22.7824 588.074 22.7972 588.089 22.8164C588.12 22.8549 588.157 22.9057 588.201 22.9688C588.29 23.0952 588.396 23.2606 588.513 23.4531C588.629 23.6453 588.755 23.8614 588.882 24.0898L589.261 24.8008C591.099 28.4056 592.391 32.3427 593.095 36.4434L593.228 37.2656C593.636 39.9792 593.72 45.1472 593.39 47.6172V47.6182C592.783 52.2137 591.572 56.3158 589.628 60.3242C589.034 61.5456 588.567 62.3771 588.184 62.8975C587.992 63.1573 587.836 63.3184 587.714 63.4111C587.594 63.502 587.534 63.5058 587.521 63.5059C587.353 63.5059 587.116 63.5456 586.961 63.5869C586.957 63.5871 586.95 63.5878 586.941 63.5879C586.911 63.588 586.867 63.5861 586.812 63.5801C586.7 63.5679 586.569 63.543 586.453 63.5088C586.236 63.4448 585.973 63.2651 585.739 62.9922C585.537 62.7557 585.388 62.4843 585.317 62.2314L585.292 62.124C585.261 61.9587 585.259 61.8324 585.339 61.5889C585.407 61.38 585.53 61.1033 585.739 60.6826L585.979 60.2109C588.917 54.5272 590.197 49.284 590.197 42.9424C590.197 37.1927 589.202 32.623 586.767 27.3662L586.26 26.3047C585.965 25.7067 585.698 25.1289 585.507 24.6836C585.411 24.4606 585.336 24.2751 585.285 24.1387C585.261 24.072 585.244 24.022 585.234 23.9883C585.243 23.8054 585.325 23.5396 585.483 23.2637C585.651 22.9729 585.861 22.7438 586.04 22.6328L586.043 22.6309C586.303 22.4676 586.689 22.3832 587.093 22.4111Z" fill="#4A615D" stroke="#4A615D"/>
<path d="M578.688 26.6383C579.181 26.5931 579.654 26.7292 579.954 27.0055L579.955 27.0065C579.983 27.0318 580.05 27.1102 580.155 27.2672C580.255 27.4154 580.373 27.6086 580.504 27.8395C580.765 28.3005 581.07 28.8936 581.381 29.5426C582.004 30.8439 582.637 32.3399 582.986 33.4078C585.242 40.3221 584.979 47.7399 582.247 54.5748L581.975 55.235C581.194 57.0581 580.56 58.1776 579.968 58.7887C579.68 59.0862 579.421 59.2417 579.183 59.3112C579.007 59.3624 578.817 59.3735 578.603 59.3375L578.378 59.2858C578.006 59.1772 577.652 58.879 577.424 58.4899C577.193 58.0975 577.133 57.6886 577.229 57.3864L577.231 57.3776C577.253 57.3038 577.374 57.0191 577.578 56.5758C577.774 56.1518 578.027 55.622 578.289 55.0895V55.0885C580.547 50.4766 581.491 45.5314 581.032 40.6676C580.656 36.6858 579.938 34.1575 578.143 30.4948H578.144C577.54 29.2565 577.272 28.6345 577.209 28.2086C577.181 28.0217 577.198 27.8884 577.242 27.7594C577.292 27.6167 577.383 27.455 577.549 27.2184L577.55 27.2194C577.773 26.9024 578.195 26.6836 578.688 26.6383Z" fill="#4A615D" stroke="#4A615D"/>
<path d="M570.69 30.8425C571.172 30.8426 571.49 30.9543 571.815 31.2703C572.134 31.5791 572.468 32.0913 572.899 32.9402L573.09 33.325C574.68 36.5901 575.328 39.4085 575.319 43.0369C575.311 46.7666 574.708 49.3082 573.013 52.7566C572.516 53.7642 572.172 54.3401 571.855 54.6824C571.574 54.9865 571.316 55.105 570.931 55.157C570.831 55.1643 570.681 55.1578 570.519 55.1326C570.349 55.1063 570.206 55.0661 570.12 55.0271L570.116 55.0251C569.624 54.8055 569.174 54.2535 569.053 53.7214C569.034 53.6396 569.024 53.5205 569.132 53.2078C569.244 52.8819 569.461 52.4075 569.843 51.6355C572.708 45.8344 572.737 40.2211 569.938 34.5427H569.938C569.638 33.9382 569.42 33.4698 569.273 33.0906C569.126 32.709 569.063 32.4474 569.052 32.2517C569.034 31.9351 569.14 31.7091 569.616 31.2576L569.617 31.2585C569.859 31.0298 569.979 30.9488 570.087 30.907C570.198 30.864 570.347 30.8425 570.69 30.8425Z" fill="#4A615D" stroke="#4A615D"/>
<path d="M562.716 34.7965C563.113 34.7218 563.405 34.775 563.698 34.9655C564.022 35.1757 564.381 35.5763 564.837 36.2858C567.418 40.3188 567.418 45.7031 564.839 49.6998C564.39 50.3887 563.95 50.8016 563.541 51.0016C563.152 51.1915 562.76 51.2062 562.331 51.0299L562.329 51.0289C562.177 50.9671 561.968 50.8077 561.768 50.569C561.62 50.3926 561.5 50.2003 561.423 50.0231L561.361 49.8522C561.291 49.6017 561.284 49.3959 561.366 49.1168C561.457 48.8092 561.655 48.4095 562.032 47.7877L562.031 47.7867C562.535 46.9612 562.866 46.2953 563.062 45.5475C563.258 44.8035 563.314 44.0089 563.314 42.942C563.314 41.8754 563.258 41.0794 563.062 40.3346C562.866 39.5852 562.536 38.9179 562.031 38.0953L562.03 38.0934L561.795 37.692C561.719 37.5561 561.647 37.4211 561.583 37.2946C561.45 37.0316 561.367 36.8373 561.342 36.7535C561.236 36.4015 561.321 35.9645 561.59 35.569C561.857 35.1759 562.27 34.8817 562.717 34.7975L562.716 34.7965Z" fill="#4A615D" stroke="#4A615D"/>
<path d="M40.498 24.1586C43.2078 24.1586 45.6629 25.2764 47.4424 27.0873C49.2201 28.8962 50.3223 31.4 50.3223 34.1654C50.3222 36.1037 49.7793 37.911 48.8447 39.4418C46.8615 37.0013 43.86 35.4428 40.498 35.4427C36.0116 35.4427 31.8856 37.0162 28.6279 39.6517C24.8171 36.2736 22.4064 31.3006 22.4062 25.7513V24.1586H40.498Z" fill="#4A615D" stroke="#4A615D"/>
<path opacity="0.6" d="M28.6279 40.9615C31.8857 43.5945 36.0111 45.1705 40.498 45.1705C43.861 45.1705 46.8602 43.6106 48.8447 41.1705C49.78 42.702 50.3223 44.5109 50.3223 46.4489C50.3222 49.2149 49.2202 51.7174 47.4424 53.527C45.6631 55.3382 43.2077 56.4556 40.498 56.4557H22.4062V54.8629C22.4063 49.312 24.8168 44.337 28.6279 40.9615Z" fill="#4A615D" stroke="#4A615D"/>
<mask id="path-9-inside-2_1838_1203" fill="white">
<path d="M509.975 297.924L492.45 340.859H481.017L472.393 306.595C471.87 304.485 471.415 303.712 469.822 302.822C467.223 301.374 462.93 300.015 459.152 299.172L459.409 297.924H477.813C480.159 297.924 482.268 299.528 482.8 302.302L487.355 327.146L498.611 297.923L509.975 297.924ZM555.268 327.238C555.315 316.054 539.804 315.438 539.911 310.441C539.944 308.921 541.391 307.304 544.56 306.892C546.131 306.686 550.458 306.529 555.367 308.788L557.292 299.802C554.654 298.844 551.261 297.923 547.039 297.923C536.204 297.923 528.579 303.683 528.515 311.931C528.445 318.031 533.957 321.436 538.11 323.462C542.382 325.538 543.816 326.873 543.8 328.729C543.77 331.572 540.392 332.827 537.236 332.876C531.726 332.961 528.53 331.385 525.981 330.201L523.994 339.484C526.556 340.659 531.283 341.684 536.184 341.736C547.699 341.736 555.233 336.047 555.268 327.238ZM583.927 340.859H594.094L585.219 297.923H575.836C573.726 297.923 571.946 299.165 571.158 301.073L554.663 340.859H566.206L568.497 334.446H582.6L583.927 340.859ZM572.188 325.963L577.749 310.191L580.95 325.963H572.188ZM525.747 297.923L516.624 340.859H505.593L514.719 297.923H525.747ZM508.283 365.394V350.077H513.342C514.981 350.077 516.284 350.467 517.252 351.246C518.219 352.025 518.703 353.201 518.703 354.773C518.703 356.358 518.219 357.538 517.252 358.31C516.284 359.083 514.981 359.469 513.342 359.469H510.258V365.394H508.283ZM513.06 351.67H510.258V357.937H513.06C514.216 357.937 515.102 357.699 515.72 357.222C516.338 356.745 516.647 355.935 516.647 354.793C516.647 353.665 516.338 352.862 515.72 352.385C515.102 351.908 514.216 351.67 513.06 351.67ZM522.975 349.473V365.394H521.182V349.473H522.975ZM526.16 356.527L526.361 354.773C526.791 354.478 527.329 354.229 527.973 354.028C528.618 353.826 529.324 353.725 530.09 353.725C531.554 353.725 532.642 354.014 533.354 354.592C534.067 355.169 534.423 356.123 534.423 357.454V365.394H532.71V363.218H532.629C532.334 364.064 531.876 364.685 531.258 365.082C530.641 365.478 529.868 365.676 528.941 365.676C528.309 365.676 527.728 365.559 527.198 365.324C526.667 365.088 526.24 364.733 525.918 364.256C525.595 363.778 525.434 363.17 525.434 362.432C525.434 361.693 525.588 361.098 525.898 360.648C526.207 360.198 526.64 359.852 527.198 359.61C527.755 359.368 528.424 359.18 529.203 359.046C530.157 358.885 530.912 358.736 531.471 358.602C532.028 358.468 532.427 358.287 532.669 358.058V357.534C532.669 356.701 532.477 356.096 532.094 355.72C531.712 355.345 530.997 355.156 529.949 355.156C529.276 355.156 528.615 355.27 527.963 355.499C527.312 355.727 526.724 356.07 526.2 356.527H526.16ZM532.649 361.565V359.207C532.434 359.395 532.054 359.56 531.51 359.701C530.966 359.842 530.291 359.986 529.485 360.134C528.8 360.242 528.245 360.443 527.822 360.739C527.399 361.034 527.187 361.558 527.187 362.311C527.187 362.996 527.386 363.503 527.782 363.832C528.179 364.161 528.726 364.326 529.425 364.326C530.097 364.326 530.674 364.185 531.158 363.903C531.641 363.621 532.011 363.268 532.266 362.844C532.521 362.421 532.649 361.995 532.649 361.565ZM540.005 362.331C540.005 363.056 540.159 363.544 540.469 363.792C540.778 364.04 541.181 364.165 541.678 364.165C542.134 364.165 542.531 364.125 542.867 364.044C543.203 363.963 543.479 363.87 543.693 363.762H543.754L543.593 365.273C543.391 365.381 543.089 365.475 542.686 365.555C542.283 365.636 541.872 365.676 541.456 365.676C540.449 365.676 539.656 365.438 539.078 364.961C538.501 364.484 538.211 363.701 538.211 362.613V355.479H536.116L536.357 354.31L538.211 354.048V351.609L540.005 351.347V354.007H543.492L543.27 355.479H540.005V362.331ZM545.406 351.226C545.406 350.931 545.511 350.686 545.718 350.491C545.927 350.296 546.192 350.198 546.515 350.198C546.837 350.198 547.106 350.296 547.321 350.491C547.536 350.686 547.643 350.931 547.643 351.226C547.643 351.535 547.536 351.787 547.321 351.982C547.106 352.177 546.837 352.274 546.515 352.274C546.192 352.274 545.927 352.177 545.718 351.982C545.511 351.787 545.406 351.535 545.406 351.226ZM547.422 354.007V365.394H545.628V354.007H547.422ZM555.806 355.277C555.174 355.277 554.6 355.405 554.083 355.66C553.565 355.915 553.156 356.278 552.854 356.748C552.551 357.219 552.4 357.776 552.4 358.421V365.394H550.606V354.007H552.319V356.426H552.42C552.635 355.781 552.96 355.26 553.397 354.863C553.834 354.467 554.324 354.178 554.868 353.997C555.412 353.815 555.947 353.725 556.471 353.725C557.707 353.725 558.674 354.041 559.373 354.672C560.071 355.304 560.421 356.292 560.421 357.635V365.394H558.647V358.139C558.647 357.185 558.442 356.47 558.033 355.993C557.623 355.515 556.881 355.277 555.806 355.277ZM568.079 364.124C568.697 364.124 569.265 363.997 569.783 363.742C570.3 363.487 570.712 363.124 571.022 362.653C571.331 362.183 571.485 361.632 571.485 361.001V354.007H573.279V365.394H571.566V362.996H571.485C571.256 363.641 570.928 364.161 570.498 364.558C570.067 364.954 569.584 365.24 569.047 365.414C568.509 365.589 567.978 365.676 567.454 365.676C566.218 365.676 565.245 365.354 564.532 364.709C563.82 364.064 563.464 363.069 563.464 361.726V354.007H565.258V361.323C565.258 362.291 565.459 362.999 565.862 363.45C566.265 363.899 567.004 364.124 568.079 364.124ZM581.481 355.277C580.877 355.277 580.326 355.401 579.829 355.65C579.332 355.898 578.939 356.258 578.649 356.728C578.361 357.199 578.216 357.749 578.216 358.381V365.394H576.423V354.007H578.136V356.466H578.237C578.451 355.808 578.768 355.281 579.184 354.885C579.6 354.488 580.067 354.196 580.584 354.007C581.102 353.819 581.622 353.725 582.146 353.725C583.167 353.725 583.99 353.95 584.615 354.4C585.24 354.85 585.646 355.539 585.835 356.466H585.915C586.13 355.808 586.452 355.281 586.883 354.885C587.313 354.488 587.793 354.196 588.323 354.007C588.854 353.819 589.382 353.725 589.906 353.725C591.128 353.725 592.069 354.055 592.727 354.713C593.385 355.371 593.715 356.365 593.715 357.695V365.394H591.921V358.058C591.921 357.091 591.743 356.386 591.386 355.942C591.031 355.499 590.316 355.277 589.24 355.277C588.313 355.277 587.538 355.543 586.913 356.074C586.288 356.604 585.976 357.373 585.976 358.381V365.394H584.182V358.058C584.182 357.091 584.001 356.386 583.638 355.942C583.275 355.499 582.557 355.277 581.481 355.277Z"/>
</mask>
<path d="M509.975 297.924L492.45 340.859H481.017L472.393 306.595C471.87 304.485 471.415 303.712 469.822 302.822C467.223 301.374 462.93 300.015 459.152 299.172L459.409 297.924H477.813C480.159 297.924 482.268 299.528 482.8 302.302L487.355 327.146L498.611 297.923L509.975 297.924ZM555.268 327.238C555.315 316.054 539.804 315.438 539.911 310.441C539.944 308.921 541.391 307.304 544.56 306.892C546.131 306.686 550.458 306.529 555.367 308.788L557.292 299.802C554.654 298.844 551.261 297.923 547.039 297.923C536.204 297.923 528.579 303.683 528.515 311.931C528.445 318.031 533.957 321.436 538.11 323.462C542.382 325.538 543.816 326.873 543.8 328.729C543.77 331.572 540.392 332.827 537.236 332.876C531.726 332.961 528.53 331.385 525.981 330.201L523.994 339.484C526.556 340.659 531.283 341.684 536.184 341.736C547.699 341.736 555.233 336.047 555.268 327.238ZM583.927 340.859H594.094L585.219 297.923H575.836C573.726 297.923 571.946 299.165 571.158 301.073L554.663 340.859H566.206L568.497 334.446H582.6L583.927 340.859ZM572.188 325.963L577.749 310.191L580.95 325.963H572.188ZM525.747 297.923L516.624 340.859H505.593L514.719 297.923H525.747ZM508.283 365.394V350.077H513.342C514.981 350.077 516.284 350.467 517.252 351.246C518.219 352.025 518.703 353.201 518.703 354.773C518.703 356.358 518.219 357.538 517.252 358.31C516.284 359.083 514.981 359.469 513.342 359.469H510.258V365.394H508.283ZM513.06 351.67H510.258V357.937H513.06C514.216 357.937 515.102 357.699 515.72 357.222C516.338 356.745 516.647 355.935 516.647 354.793C516.647 353.665 516.338 352.862 515.72 352.385C515.102 351.908 514.216 351.67 513.06 351.67ZM522.975 349.473V365.394H521.182V349.473H522.975ZM526.16 356.527L526.361 354.773C526.791 354.478 527.329 354.229 527.973 354.028C528.618 353.826 529.324 353.725 530.09 353.725C531.554 353.725 532.642 354.014 533.354 354.592C534.067 355.169 534.423 356.123 534.423 357.454V365.394H532.71V363.218H532.629C532.334 364.064 531.876 364.685 531.258 365.082C530.641 365.478 529.868 365.676 528.941 365.676C528.309 365.676 527.728 365.559 527.198 365.324C526.667 365.088 526.24 364.733 525.918 364.256C525.595 363.778 525.434 363.17 525.434 362.432C525.434 361.693 525.588 361.098 525.898 360.648C526.207 360.198 526.64 359.852 527.198 359.61C527.755 359.368 528.424 359.18 529.203 359.046C530.157 358.885 530.912 358.736 531.471 358.602C532.028 358.468 532.427 358.287 532.669 358.058V357.534C532.669 356.701 532.477 356.096 532.094 355.72C531.712 355.345 530.997 355.156 529.949 355.156C529.276 355.156 528.615 355.27 527.963 355.499C527.312 355.727 526.724 356.07 526.2 356.527H526.16ZM532.649 361.565V359.207C532.434 359.395 532.054 359.56 531.51 359.701C530.966 359.842 530.291 359.986 529.485 360.134C528.8 360.242 528.245 360.443 527.822 360.739C527.399 361.034 527.187 361.558 527.187 362.311C527.187 362.996 527.386 363.503 527.782 363.832C528.179 364.161 528.726 364.326 529.425 364.326C530.097 364.326 530.674 364.185 531.158 363.903C531.641 363.621 532.011 363.268 532.266 362.844C532.521 362.421 532.649 361.995 532.649 361.565ZM540.005 362.331C540.005 363.056 540.159 363.544 540.469 363.792C540.778 364.04 541.181 364.165 541.678 364.165C542.134 364.165 542.531 364.125 542.867 364.044C543.203 363.963 543.479 363.87 543.693 363.762H543.754L543.593 365.273C543.391 365.381 543.089 365.475 542.686 365.555C542.283 365.636 541.872 365.676 541.456 365.676C540.449 365.676 539.656 365.438 539.078 364.961C538.501 364.484 538.211 363.701 538.211 362.613V355.479H536.116L536.357 354.31L538.211 354.048V351.609L540.005 351.347V354.007H543.492L543.27 355.479H540.005V362.331ZM545.406 351.226C545.406 350.931 545.511 350.686 545.718 350.491C545.927 350.296 546.192 350.198 546.515 350.198C546.837 350.198 547.106 350.296 547.321 350.491C547.536 350.686 547.643 350.931 547.643 351.226C547.643 351.535 547.536 351.787 547.321 351.982C547.106 352.177 546.837 352.274 546.515 352.274C546.192 352.274 545.927 352.177 545.718 351.982C545.511 351.787 545.406 351.535 545.406 351.226ZM547.422 354.007V365.394H545.628V354.007H547.422ZM555.806 355.277C555.174 355.277 554.6 355.405 554.083 355.66C553.565 355.915 553.156 356.278 552.854 356.748C552.551 357.219 552.4 357.776 552.4 358.421V365.394H550.606V354.007H552.319V356.426H552.42C552.635 355.781 552.96 355.26 553.397 354.863C553.834 354.467 554.324 354.178 554.868 353.997C555.412 353.815 555.947 353.725 556.471 353.725C557.707 353.725 558.674 354.041 559.373 354.672C560.071 355.304 560.421 356.292 560.421 357.635V365.394H558.647V358.139C558.647 357.185 558.442 356.47 558.033 355.993C557.623 355.515 556.881 355.277 555.806 355.277ZM568.079 364.124C568.697 364.124 569.265 363.997 569.783 363.742C570.3 363.487 570.712 363.124 571.022 362.653C571.331 362.183 571.485 361.632 571.485 361.001V354.007H573.279V365.394H571.566V362.996H571.485C571.256 363.641 570.928 364.161 570.498 364.558C570.067 364.954 569.584 365.24 569.047 365.414C568.509 365.589 567.978 365.676 567.454 365.676C566.218 365.676 565.245 365.354 564.532 364.709C563.82 364.064 563.464 363.069 563.464 361.726V354.007H565.258V361.323C565.258 362.291 565.459 362.999 565.862 363.45C566.265 363.899 567.004 364.124 568.079 364.124ZM581.481 355.277C580.877 355.277 580.326 355.401 579.829 355.65C579.332 355.898 578.939 356.258 578.649 356.728C578.361 357.199 578.216 357.749 578.216 358.381V365.394H576.423V354.007H578.136V356.466H578.237C578.451 355.808 578.768 355.281 579.184 354.885C579.6 354.488 580.067 354.196 580.584 354.007C581.102 353.819 581.622 353.725 582.146 353.725C583.167 353.725 583.99 353.95 584.615 354.4C585.24 354.85 585.646 355.539 585.835 356.466H585.915C586.13 355.808 586.452 355.281 586.883 354.885C587.313 354.488 587.793 354.196 588.323 354.007C588.854 353.819 589.382 353.725 589.906 353.725C591.128 353.725 592.069 354.055 592.727 354.713C593.385 355.371 593.715 356.365 593.715 357.695V365.394H591.921V358.058C591.921 357.091 591.743 356.386 591.386 355.942C591.031 355.499 590.316 355.277 589.24 355.277C588.313 355.277 587.538 355.543 586.913 356.074C586.288 356.604 585.976 357.373 585.976 358.381V365.394H584.182V358.058C584.182 357.091 584.001 356.386 583.638 355.942C583.275 355.499 582.557 355.277 581.481 355.277Z" fill="#4A615D" stroke="#4A615D" stroke-width="2" mask="url(#path-9-inside-2_1838_1203)"/>
<mask id="path-10-inside-3_1838_1203" fill="white">
<path fill-rule="evenodd" clip-rule="evenodd" d="M116.809 161.961C106.545 151.373 94.1701 146.077 79.6897 146.077C63.6586 146.077 51.3527 151.926 42.7786 163.631V107H20V253.286H42.7786V238.238C51.3527 250.083 63.6586 256 79.6897 256C94.1701 256 106.545 250.672 116.809 240.012C127.072 229.356 132.208 216.503 132.208 201.039C132.208 185.575 127.072 172.549 116.809 161.961ZM76.1024 234.476C66.5393 234.476 58.5961 231.309 52.2691 224.969C45.9421 218.628 42.7786 210.65 42.7786 201.039C42.7786 191.427 45.9421 183.453 52.2691 177.112C58.5961 170.775 66.5427 167.605 76.1024 167.605C85.6618 167.605 93.6083 170.775 99.9353 177.112C106.262 183.453 109.426 191.424 109.426 201.039C109.426 210.654 106.262 218.631 99.9353 224.969C93.6083 231.309 85.6651 234.476 76.1024 234.476ZM255.636 147.016H232.858V162.095C224.282 150.2 211.976 144.25 195.946 144.25C181.463 144.25 169.087 149.634 158.827 160.398C148.56 171.162 143.429 184.543 143.429 200.125C143.429 215.707 148.56 228.913 158.827 239.746C169.087 250.583 181.463 256 195.946 256C211.976 256 224.282 249.984 232.858 237.943V253.24H255.636V147.016ZM199.532 234.121C189.972 234.121 182.028 230.902 175.7 224.456C169.375 218.01 166.211 209.9 166.211 200.128C166.211 190.357 169.375 182.25 175.7 175.804C182.028 169.362 189.976 166.139 199.532 166.139C209.093 166.139 217.041 169.362 223.365 175.804C229.694 182.25 232.858 190.354 232.858 200.128C232.858 209.903 229.694 218.013 223.365 224.456C217.041 230.902 209.096 234.121 199.532 234.121ZM306.814 184.727C303.037 182.676 301.148 179.876 301.148 176.336C301.148 172.653 302.592 169.854 305.479 167.941C308.367 166.029 311.942 165.073 316.206 165.073C325.553 165.073 332.016 169.11 335.592 177.183L354.361 166.347C350.785 159.408 345.664 153.991 338.996 150.093C332.323 146.199 324.726 144.25 316.206 144.25C305.479 144.25 296.506 147.225 289.291 153.174C282.073 159.123 278.463 166.982 278.463 176.756C278.463 183.84 280.352 189.68 284.133 194.283C287.915 198.886 292.556 202.178 298.055 204.16C303.553 206.145 309.021 207.879 314.452 209.365C319.883 210.854 324.487 212.661 328.268 214.785C332.046 216.909 333.939 219.672 333.939 223.07C333.939 231.005 328.1 234.969 316.412 234.969C304.72 234.969 297.093 229.87 293.518 219.672L274.338 231.144C277.64 238.936 282.929 245.028 290.219 249.415C297.505 253.803 306.235 256 316.412 256C327.958 256 337.548 253.102 345.178 247.291C352.808 241.487 356.623 233.483 356.623 223.285C356.623 216.062 354.731 210.083 350.949 205.335C347.168 200.59 342.526 197.228 337.028 195.243C331.53 193.261 326.062 191.527 320.635 190.038C315.2 188.552 310.596 186.782 306.814 184.727ZM399.487 228.489C393.446 224.171 389.59 217.973 387.903 209.9L387.899 209.896H471.73C472.291 205.936 472.571 202.749 472.571 200.337C472.571 184.758 467.623 171.519 457.723 160.609C447.822 149.703 435.15 144.25 419.707 144.25C403.418 144.25 390.08 149.601 379.69 160.292C369.295 170.986 364.104 183.977 364.104 200.125C364.104 216.273 369.37 229.624 379.899 240.173C390.428 250.725 404.259 256 421.39 256C441.748 256 457.124 248.284 467.515 232.844L448.772 221.795C442.732 230.581 433.676 234.968 421.599 234.968C412.896 234.968 405.524 232.811 399.487 228.489ZM449.614 191.204H387.694C389.235 183.133 392.818 176.76 398.432 172.085C404.05 167.409 411.074 165.073 419.497 165.073C426.937 165.073 433.433 167.27 438.98 171.658C444.523 176.052 448.065 182.568 449.614 191.204ZM573.222 107H596V253.286H573.222V238.238C564.645 250.083 552.34 256 536.309 256C521.827 256 509.45 250.672 499.191 240.012C488.924 229.356 483.792 216.366 483.792 201.039C483.792 185.712 488.924 172.549 499.191 161.961C509.45 151.373 521.827 146.077 536.309 146.077C552.34 146.077 564.645 151.93 573.222 163.631V107ZM516.063 224.969C522.392 231.309 530.336 234.476 539.896 234.476C549.46 234.476 557.404 231.309 563.729 224.969C570.058 218.631 573.222 210.654 573.222 201.039C573.222 191.424 570.058 183.453 563.729 177.112C557.404 170.775 549.456 167.605 539.896 167.605C530.34 167.605 522.392 170.775 516.063 177.112C509.738 183.453 506.574 191.427 506.574 201.039C506.574 210.65 509.738 218.628 516.063 224.969Z"/>
</mask>
<path fill-rule="evenodd" clip-rule="evenodd" d="M116.809 161.961C106.545 151.373 94.1701 146.077 79.6897 146.077C63.6586 146.077 51.3527 151.926 42.7786 163.631V107H20V253.286H42.7786V238.238C51.3527 250.083 63.6586 256 79.6897 256C94.1701 256 106.545 250.672 116.809 240.012C127.072 229.356 132.208 216.503 132.208 201.039C132.208 185.575 127.072 172.549 116.809 161.961ZM76.1024 234.476C66.5393 234.476 58.5961 231.309 52.2691 224.969C45.9421 218.628 42.7786 210.65 42.7786 201.039C42.7786 191.427 45.9421 183.453 52.2691 177.112C58.5961 170.775 66.5427 167.605 76.1024 167.605C85.6618 167.605 93.6083 170.775 99.9353 177.112C106.262 183.453 109.426 191.424 109.426 201.039C109.426 210.654 106.262 218.631 99.9353 224.969C93.6083 231.309 85.6651 234.476 76.1024 234.476ZM255.636 147.016H232.858V162.095C224.282 150.2 211.976 144.25 195.946 144.25C181.463 144.25 169.087 149.634 158.827 160.398C148.56 171.162 143.429 184.543 143.429 200.125C143.429 215.707 148.56 228.913 158.827 239.746C169.087 250.583 181.463 256 195.946 256C211.976 256 224.282 249.984 232.858 237.943V253.24H255.636V147.016ZM199.532 234.121C189.972 234.121 182.028 230.902 175.7 224.456C169.375 218.01 166.211 209.9 166.211 200.128C166.211 190.357 169.375 182.25 175.7 175.804C182.028 169.362 189.976 166.139 199.532 166.139C209.093 166.139 217.041 169.362 223.365 175.804C229.694 182.25 232.858 190.354 232.858 200.128C232.858 209.903 229.694 218.013 223.365 224.456C217.041 230.902 209.096 234.121 199.532 234.121ZM306.814 184.727C303.037 182.676 301.148 179.876 301.148 176.336C301.148 172.653 302.592 169.854 305.479 167.941C308.367 166.029 311.942 165.073 316.206 165.073C325.553 165.073 332.016 169.11 335.592 177.183L354.361 166.347C350.785 159.408 345.664 153.991 338.996 150.093C332.323 146.199 324.726 144.25 316.206 144.25C305.479 144.25 296.506 147.225 289.291 153.174C282.073 159.123 278.463 166.982 278.463 176.756C278.463 183.84 280.352 189.68 284.133 194.283C287.915 198.886 292.556 202.178 298.055 204.16C303.553 206.145 309.021 207.879 314.452 209.365C319.883 210.854 324.487 212.661 328.268 214.785C332.046 216.909 333.939 219.672 333.939 223.07C333.939 231.005 328.1 234.969 316.412 234.969C304.72 234.969 297.093 229.87 293.518 219.672L274.338 231.144C277.64 238.936 282.929 245.028 290.219 249.415C297.505 253.803 306.235 256 316.412 256C327.958 256 337.548 253.102 345.178 247.291C352.808 241.487 356.623 233.483 356.623 223.285C356.623 216.062 354.731 210.083 350.949 205.335C347.168 200.59 342.526 197.228 337.028 195.243C331.53 193.261 326.062 191.527 320.635 190.038C315.2 188.552 310.596 186.782 306.814 184.727ZM399.487 228.489C393.446 224.171 389.59 217.973 387.903 209.9L387.899 209.896H471.73C472.291 205.936 472.571 202.749 472.571 200.337C472.571 184.758 467.623 171.519 457.723 160.609C447.822 149.703 435.15 144.25 419.707 144.25C403.418 144.25 390.08 149.601 379.69 160.292C369.295 170.986 364.104 183.977 364.104 200.125C364.104 216.273 369.37 229.624 379.899 240.173C390.428 250.725 404.259 256 421.39 256C441.748 256 457.124 248.284 467.515 232.844L448.772 221.795C442.732 230.581 433.676 234.968 421.599 234.968C412.896 234.968 405.524 232.811 399.487 228.489ZM449.614 191.204H387.694C389.235 183.133 392.818 176.76 398.432 172.085C404.05 167.409 411.074 165.073 419.497 165.073C426.937 165.073 433.433 167.27 438.98 171.658C444.523 176.052 448.065 182.568 449.614 191.204ZM573.222 107H596V253.286H573.222V238.238C564.645 250.083 552.34 256 536.309 256C521.827 256 509.45 250.672 499.191 240.012C488.924 229.356 483.792 216.366 483.792 201.039C483.792 185.712 488.924 172.549 499.191 161.961C509.45 151.373 521.827 146.077 536.309 146.077C552.34 146.077 564.645 151.93 573.222 163.631V107ZM516.063 224.969C522.392 231.309 530.336 234.476 539.896 234.476C549.46 234.476 557.404 231.309 563.729 224.969C570.058 218.631 573.222 210.654 573.222 201.039C573.222 191.424 570.058 183.453 563.729 177.112C557.404 170.775 549.456 167.605 539.896 167.605C530.34 167.605 522.392 170.775 516.063 177.112C509.738 183.453 506.574 191.427 506.574 201.039C506.574 210.65 509.738 218.628 516.063 224.969Z" stroke="#4A615D" stroke-width="2" mask="url(#path-10-inside-3_1838_1203)"/>
<path d="M80.6143 138.947H152.467C156.062 138.947 158.976 141.861 158.977 145.456V193.65C158.977 197.245 156.062 200.16 152.467 200.16H80.6143C77.019 200.16 74.1045 197.245 74.1045 193.65V145.456C74.1046 141.861 77.0191 138.947 80.6143 138.947Z" fill="#171F1E" stroke="#4A615D"/>
<path d="M152.467 138.885H80.6148C76.9853 138.885 74.043 141.827 74.043 145.456V193.65C74.043 197.279 76.9853 200.222 80.6148 200.222H152.467C156.096 200.222 159.039 197.279 159.039 193.65V145.456C159.039 141.827 156.096 138.885 152.467 138.885Z" fill="#171F1E" stroke="#4A615D"/>
<mask id="path-13-inside-4_1838_1203" fill="white">
<path d="M115.237 148.766V149.204H115.675V148.766H115.237ZM114.798 148.328V148.766H115.237V148.328H114.798ZM115.237 200.246V200.684H115.675V200.246H115.237ZM115.237 189.926H115.675V189.488H115.237V189.926ZM114.798 200.246H114.36V200.684H114.798V200.246ZM114.798 190.364H115.237V189.926H114.798V190.364ZM119.371 148.328H118.933V148.766H119.371V148.328ZM118.933 148.766H118.494V149.204H118.933V148.766ZM119.371 200.246V200.684H119.809V200.246H119.371ZM119.371 190.364V189.926H118.933V190.364H119.371ZM118.933 200.246H118.494V200.684H118.933V200.246ZM118.933 189.926V189.488H118.494V189.926H118.933ZM124.911 169.16L124.473 169.17L124.483 169.598H124.911V169.16ZM158.639 169.16H159.077V168.722H158.639V169.16ZM158.639 169.598V170.036H159.077V169.598H158.639ZM124.911 169.598V169.16H124.483L124.473 169.589L124.911 169.598ZM115.237 138.447H114.798V148.766H115.237H115.675V138.447H115.237ZM114.798 148.328H115.237V138.447H114.798H114.36V148.328H114.798ZM73.6045 148.328V148.766H114.798V148.328V147.89H73.6045V148.328ZM115.237 148.766V148.328H73.6045V148.766V149.204H115.237V148.766ZM115.237 200.246H115.675V189.926H115.237H114.798V200.246H115.237ZM114.798 200.246V200.684H115.237V200.246V199.808H114.798V200.246ZM114.798 190.364H114.36V200.246H114.798H115.237V190.364H114.798ZM73.6045 190.364V190.802H114.798V190.364V189.926H73.6045V190.364ZM115.237 189.926V189.488H73.6045V189.926V190.364H115.237V189.926ZM119.371 148.328H119.809V138.447H119.371H118.933V148.328H119.371ZM159.476 148.328V147.89H119.371V148.328V148.766H159.476V148.328ZM118.933 148.766V149.204H159.476V148.766V148.328H118.933V148.766ZM118.933 138.447H118.494V148.766H118.933H119.371V138.447H118.933ZM119.371 200.246H119.809V190.364H119.371H118.933V200.246H119.371ZM118.933 200.246V200.684H119.371V200.246V199.808H118.933V200.246ZM118.933 189.926H118.494V200.246H118.933H119.371V189.926H118.933ZM159.476 189.926V189.488H118.933V189.926V190.364H159.476V189.926ZM119.371 190.364V190.802H159.476V190.364V189.926H119.371V190.364ZM122.435 162.975L122.753 162.674C121.005 160.826 118.408 159.626 115.018 159.626V160.064V160.502C118.188 160.502 120.548 161.618 122.116 163.276L122.435 162.975ZM124.911 169.16L125.349 169.15C125.297 166.801 124.437 164.455 122.753 162.674L122.435 162.975L122.116 163.276C123.637 164.885 124.425 167.017 124.473 169.17L124.911 169.16ZM124.911 169.16V169.598H158.639V169.16V168.722H124.911V169.16ZM158.639 169.16H158.201V169.598H158.639H159.077V169.16H158.639ZM158.639 169.598V169.16H124.911V169.598V170.036H158.639V169.598ZM122.435 175.783L122.753 176.084C124.437 174.303 125.297 171.957 125.349 169.608L124.911 169.598L124.473 169.589C124.425 171.741 123.637 173.874 122.116 175.483L122.435 175.783ZM115.018 178.694V179.133C118.408 179.133 121.005 177.932 122.753 176.084L122.435 175.783L122.116 175.483C120.548 177.141 118.188 178.256 115.018 178.256V178.694ZM73.6045 178.694V179.133H115.018V178.694V178.256H73.6045V178.694ZM115.018 178.256V177.818H73.6045V178.256V178.694H115.018V178.256ZM122.116 175.483L121.798 175.182C120.32 176.745 118.078 177.818 115.018 177.818V178.256V178.694C118.297 178.694 120.777 177.536 122.435 175.783L122.116 175.483ZM124.476 169.379H124.038C124.038 171.501 123.285 173.61 121.798 175.182L122.116 175.483L122.435 175.783C124.089 174.033 124.914 171.704 124.914 169.379H124.476ZM122.116 163.276L121.798 163.577C123.284 165.149 124.038 167.257 124.038 169.379H124.476H124.914C124.914 167.054 124.089 164.725 122.435 162.975L122.116 163.276ZM115.018 160.502V160.94C118.078 160.94 120.32 162.014 121.798 163.577L122.116 163.276L122.435 162.975C120.777 161.222 118.298 160.064 115.018 160.064V160.502ZM73.6045 160.502V160.94H115.018V160.502V160.064H73.6045V160.502ZM115.018 160.064V159.626H73.6045V160.064V160.502H115.018V160.064Z"/>
</mask>
<path d="M115.237 148.766V149.204H115.675V148.766H115.237ZM114.798 148.328V148.766H115.237V148.328H114.798ZM115.237 200.246V200.684H115.675V200.246H115.237ZM115.237 189.926H115.675V189.488H115.237V189.926ZM114.798 200.246H114.36V200.684H114.798V200.246ZM114.798 190.364H115.237V189.926H114.798V190.364ZM119.371 148.328H118.933V148.766H119.371V148.328ZM118.933 148.766H118.494V149.204H118.933V148.766ZM119.371 200.246V200.684H119.809V200.246H119.371ZM119.371 190.364V189.926H118.933V190.364H119.371ZM118.933 200.246H118.494V200.684H118.933V200.246ZM118.933 189.926V189.488H118.494V189.926H118.933ZM124.911 169.16L124.473 169.17L124.483 169.598H124.911V169.16ZM158.639 169.16H159.077V168.722H158.639V169.16ZM158.639 169.598V170.036H159.077V169.598H158.639ZM124.911 169.598V169.16H124.483L124.473 169.589L124.911 169.598ZM115.237 138.447H114.798V148.766H115.237H115.675V138.447H115.237ZM114.798 148.328H115.237V138.447H114.798H114.36V148.328H114.798ZM73.6045 148.328V148.766H114.798V148.328V147.89H73.6045V148.328ZM115.237 148.766V148.328H73.6045V148.766V149.204H115.237V148.766ZM115.237 200.246H115.675V189.926H115.237H114.798V200.246H115.237ZM114.798 200.246V200.684H115.237V200.246V199.808H114.798V200.246ZM114.798 190.364H114.36V200.246H114.798H115.237V190.364H114.798ZM73.6045 190.364V190.802H114.798V190.364V189.926H73.6045V190.364ZM115.237 189.926V189.488H73.6045V189.926V190.364H115.237V189.926ZM119.371 148.328H119.809V138.447H119.371H118.933V148.328H119.371ZM159.476 148.328V147.89H119.371V148.328V148.766H159.476V148.328ZM118.933 148.766V149.204H159.476V148.766V148.328H118.933V148.766ZM118.933 138.447H118.494V148.766H118.933H119.371V138.447H118.933ZM119.371 200.246H119.809V190.364H119.371H118.933V200.246H119.371ZM118.933 200.246V200.684H119.371V200.246V199.808H118.933V200.246ZM118.933 189.926H118.494V200.246H118.933H119.371V189.926H118.933ZM159.476 189.926V189.488H118.933V189.926V190.364H159.476V189.926ZM119.371 190.364V190.802H159.476V190.364V189.926H119.371V190.364ZM122.435 162.975L122.753 162.674C121.005 160.826 118.408 159.626 115.018 159.626V160.064V160.502C118.188 160.502 120.548 161.618 122.116 163.276L122.435 162.975ZM124.911 169.16L125.349 169.15C125.297 166.801 124.437 164.455 122.753 162.674L122.435 162.975L122.116 163.276C123.637 164.885 124.425 167.017 124.473 169.17L124.911 169.16ZM124.911 169.16V169.598H158.639V169.16V168.722H124.911V169.16ZM158.639 169.16H158.201V169.598H158.639H159.077V169.16H158.639ZM158.639 169.598V169.16H124.911V169.598V170.036H158.639V169.598ZM122.435 175.783L122.753 176.084C124.437 174.303 125.297 171.957 125.349 169.608L124.911 169.598L124.473 169.589C124.425 171.741 123.637 173.874 122.116 175.483L122.435 175.783ZM115.018 178.694V179.133C118.408 179.133 121.005 177.932 122.753 176.084L122.435 175.783L122.116 175.483C120.548 177.141 118.188 178.256 115.018 178.256V178.694ZM73.6045 178.694V179.133H115.018V178.694V178.256H73.6045V178.694ZM115.018 178.256V177.818H73.6045V178.256V178.694H115.018V178.256ZM122.116 175.483L121.798 175.182C120.32 176.745 118.078 177.818 115.018 177.818V178.256V178.694C118.297 178.694 120.777 177.536 122.435 175.783L122.116 175.483ZM124.476 169.379H124.038C124.038 171.501 123.285 173.61 121.798 175.182L122.116 175.483L122.435 175.783C124.089 174.033 124.914 171.704 124.914 169.379H124.476ZM122.116 163.276L121.798 163.577C123.284 165.149 124.038 167.257 124.038 169.379H124.476H124.914C124.914 167.054 124.089 164.725 122.435 162.975L122.116 163.276ZM115.018 160.502V160.94C118.078 160.94 120.32 162.014 121.798 163.577L122.116 163.276L122.435 162.975C120.777 161.222 118.298 160.064 115.018 160.064V160.502ZM73.6045 160.502V160.94H115.018V160.502V160.064H73.6045V160.502ZM115.018 160.064V159.626H73.6045V160.064V160.502H115.018V160.064Z" fill="#4A615D"/>
<path d="M115.237 138.447H115.737V137.947H115.237V138.447ZM114.798 138.447V137.947H114.298V138.447H114.798ZM114.798 148.328V147.828H114.298V148.328H114.798ZM114.798 148.766H114.298V149.266H114.798V148.766ZM115.237 148.328H115.737V147.828H115.237V148.328ZM73.6045 148.328V147.828H73.1045V148.328H73.6045ZM73.6045 148.766H73.1045V149.266H73.6045V148.766ZM114.798 190.364H114.298V190.864H114.798V190.364ZM115.237 190.364V190.864H115.737V190.364H115.237ZM114.798 189.926V189.426H114.298V189.926H114.798ZM73.6045 190.364H73.1045V190.864H73.6045V190.364ZM73.6045 189.926V189.426H73.1045V189.926H73.6045ZM119.371 148.328H119.871V147.828H119.371V148.328ZM118.933 148.328V147.828H118.433V148.328H118.933ZM119.371 148.766V149.266H119.871V148.766H119.371ZM119.371 138.447H119.871V137.947H119.371V138.447ZM159.476 148.328H159.976V147.828H159.476V148.328ZM159.476 148.766V149.266H159.976V148.766H159.476ZM118.933 138.447V137.947H118.433V138.447H118.933ZM119.371 190.364V190.864H119.871V190.364H119.371ZM119.371 189.926H119.871V189.426H119.371V189.926ZM118.933 190.364H118.433V190.864H118.933V190.364ZM159.476 189.926H159.976V189.426H159.476V189.926ZM159.476 190.364V190.864H159.976V190.364H159.476ZM122.435 162.975L122.092 162.611L122.092 162.611L122.435 162.975ZM124.911 169.16H125.411V168.649L124.9 168.66L124.911 169.16ZM124.911 169.598L124.9 170.098L125.411 170.109V169.598H124.911ZM122.435 175.783L122.779 175.42L122.777 175.418L122.435 175.783ZM73.6045 178.694H73.1045V179.194H73.6045V178.694ZM73.6045 178.256V177.756H73.1045V178.256H73.6045ZM122.116 175.483L121.772 175.846L121.774 175.847L122.116 175.483ZM122.116 163.276L121.773 162.913L121.772 162.913L122.116 163.276ZM73.6045 160.502H73.1045V161.002H73.6045V160.502ZM73.6045 160.064V159.564H73.1045V160.064H73.6045ZM114.798 138.885H114.298V139.385H114.798V138.885ZM115.237 138.885V139.385H115.737V138.885H115.237ZM74.0426 148.766V149.266H74.5426V148.766H74.0426ZM74.0426 148.328H74.5426V147.828H74.0426V148.328ZM74.0426 190.364V190.864H74.5426V190.364H74.0426ZM74.0426 189.926H74.5426V189.426H74.0426V189.926ZM159.038 148.328V147.828H158.538V148.328H159.038ZM159.038 148.766H158.538V149.266H159.038V148.766ZM118.933 138.885H118.433V139.385H118.933V138.885ZM119.371 138.885V139.385H119.871V138.885H119.371ZM159.038 189.926V189.426H158.538V189.926H159.038ZM159.038 190.364H158.538V190.864H159.038V190.364ZM74.0426 178.694V179.194H74.5426V178.694H74.0426ZM74.0426 178.256H74.5426V177.756H74.0426V178.256ZM74.0426 160.502V161.002H74.5426V160.502H74.0426ZM74.0426 160.064H74.5426V159.564H74.0426V160.064ZM115.237 148.766H114.737V149.204H115.237H115.737V148.766H115.237ZM115.675 148.766V148.266H115.237V148.766V149.266H115.675V148.766ZM114.798 148.328H114.298V148.766H114.798H115.298V148.328H114.798ZM114.798 148.766V149.266H115.237V148.766V148.266H114.798V148.766ZM115.237 148.766H115.737V148.328H115.237H114.737V148.766H115.237ZM115.237 148.328V147.828H114.798V148.328V148.828H115.237V148.328ZM115.237 200.246H114.737V200.684H115.237H115.737V200.246H115.237ZM115.675 200.246V199.746H115.237V200.246V200.746H115.675V200.246ZM115.237 189.926V190.426H115.675V189.926V189.426H115.237V189.926ZM115.237 189.488H114.737V189.926H115.237H115.737V189.488H115.237ZM114.798 200.246V199.746H114.36V200.246V200.746H114.798V200.246ZM114.798 200.684H115.298V200.246H114.798H114.298V200.684H114.798ZM114.798 190.364V190.864H115.237V190.364V189.864H114.798V190.364ZM115.237 190.364H115.737V189.926H115.237H114.737V190.364H115.237ZM115.237 189.926V189.426H114.798V189.926V190.426H115.237V189.926ZM114.798 189.926H114.298V190.364H114.798H115.298V189.926H114.798ZM119.371 148.328V147.828H118.933V148.328V148.828H119.371V148.328ZM118.933 148.328H118.433V148.766H118.933H119.433V148.328H118.933ZM118.933 148.766V149.266H119.371V148.766V148.266H118.933V148.766ZM119.371 148.766H119.871V148.328H119.371H118.871V148.766H119.371ZM118.933 148.766V148.266H118.494V148.766V149.266H118.933V148.766ZM118.933 149.204H119.433V148.766H118.933H118.433V149.204H118.933ZM119.371 200.246H118.871V200.684H119.371H119.871V200.246H119.371ZM119.809 200.246V199.746H119.371V200.246V200.746H119.809V200.246ZM119.371 190.364H119.871V189.926H119.371H118.871V190.364H119.371ZM119.371 189.926V189.426H118.933V189.926V190.426H119.371V189.926ZM118.933 189.926H118.433V190.364H118.933H119.433V189.926H118.933ZM118.933 190.364V190.864H119.371V190.364V189.864H118.933V190.364ZM118.933 200.246V199.746H118.494V200.246V200.746H118.933V200.246ZM118.933 200.684H119.433V200.246H118.933H118.433V200.684H118.933ZM118.933 189.926H119.433V189.488H118.933H118.433V189.926H118.933ZM118.494 189.926V190.426H118.933V189.926V189.426H118.494V189.926ZM122.435 162.975L122.778 163.338L123.096 163.037L122.753 162.674L122.41 162.311L122.092 162.611L122.435 162.975ZM124.911 169.16L124.9 168.66L124.462 168.67L124.473 169.17L124.484 169.67L124.922 169.66L124.911 169.16ZM124.911 169.598H125.411V169.16H124.911H124.411V169.598H124.911ZM158.639 169.16V169.66H159.077V169.16V168.66H158.639V169.16ZM158.639 168.722H158.139V169.16H158.639H159.139V168.722H158.639ZM158.639 169.598H158.139V170.036H158.639H159.139V169.598H158.639ZM159.077 169.598V169.098H158.639V169.598V170.098H159.077V169.598ZM124.473 169.589L124.462 170.088L124.9 170.098L124.911 169.598L124.922 169.098L124.484 169.089L124.473 169.589ZM122.435 175.783L122.091 176.146L122.409 176.447L122.753 176.084L123.097 175.721L122.779 175.42L122.435 175.783ZM122.116 175.483L121.774 175.847L122.093 176.147L122.435 175.783L122.777 175.418L122.458 175.119L122.116 175.483ZM124.476 169.379V169.879H124.914V169.379V168.879H124.476V169.379ZM122.116 163.276L122.459 163.639L122.778 163.338L122.435 162.975L122.092 162.611L121.773 162.913L122.116 163.276ZM115.237 138.447V137.947H114.798V138.447V138.947H115.237V138.447ZM114.798 138.447H114.298V138.885H114.798H115.298V138.447H114.798ZM114.798 138.885V139.385H115.237V138.885V138.385H114.798V138.885ZM115.237 138.885H115.737V138.447H115.237H114.737V138.885H115.237ZM73.6045 148.328H73.1045V148.766H73.6045H74.1045V148.328H73.6045ZM73.6045 148.766V149.266H74.0426V148.766V148.266H73.6045V148.766ZM74.0426 148.766H74.5426V148.328H74.0426H73.5426V148.766H74.0426ZM74.0426 148.328V147.828H73.6045V148.328V148.828H74.0426V148.328ZM114.798 200.246V200.746H115.237V200.246V199.746H114.798V200.246ZM73.6045 189.926H73.1045V190.364H73.6045H74.1045V189.926H73.6045ZM73.6045 190.364V190.864H74.0426V190.364V189.864H73.6045V190.364ZM74.0426 190.364H74.5426V189.926H74.0426H73.5426V190.364H74.0426ZM74.0426 189.926V189.426H73.6045V189.926V190.426H74.0426V189.926ZM119.371 138.447V137.947H118.933V138.447V138.947H119.371V138.447ZM159.476 148.766H159.976V148.328H159.476H158.976V148.766H159.476ZM159.476 148.328V147.828H159.038V148.328V148.828H159.476V148.328ZM159.038 148.328H158.538V148.766H159.038H159.538V148.328H159.038ZM159.038 148.766V149.266H159.476V148.766V148.266H159.038V148.766ZM118.933 138.447H118.433V138.885H118.933H119.433V138.447H118.933ZM118.933 138.885V139.385H119.371V138.885V138.385H118.933V138.885ZM119.371 138.885H119.871V138.447H119.371H118.871V138.885H119.371ZM118.933 200.246V200.746H119.371V200.246V199.746H118.933V200.246ZM159.476 190.364H159.976V189.926H159.476H158.976V190.364H159.476ZM159.476 189.926V189.426H159.038V189.926V190.426H159.476V189.926ZM159.038 189.926H158.538V190.364H159.038H159.538V189.926H159.038ZM159.038 190.364V190.864H159.476V190.364V189.864H159.038V190.364ZM115.018 159.626H114.518V160.064H115.018H115.518V159.626H115.018ZM115.018 160.064H114.518V160.502H115.018H115.518V160.064H115.018ZM158.639 169.598H159.139V169.16H158.639H158.139V169.598H158.639ZM115.018 178.694H114.518V179.133H115.018H115.518V178.694H115.018ZM115.018 178.256H114.518V178.694H115.018H115.518V178.256H115.018ZM73.6045 178.256H73.1045V178.694H73.6045H74.1045V178.256H73.6045ZM73.6045 178.694V179.194H74.0426V178.694V178.194H73.6045V178.694ZM74.0426 178.694H74.5426V178.256H74.0426H73.5426V178.694H74.0426ZM74.0426 178.256V177.756H73.6045V178.256V178.756H74.0426V178.256ZM115.018 178.256H115.518V177.818H115.018H114.518V178.256H115.018ZM122.116 175.483L122.46 175.12L122.142 174.819L121.798 175.182L121.454 175.545L121.772 175.846L122.116 175.483ZM124.476 169.379V168.879H124.038V169.379V169.879H124.476V169.379ZM122.116 163.276L121.772 162.913L121.454 163.215L121.798 163.577L122.142 163.94L122.46 163.639L122.116 163.276ZM115.018 160.502H114.518V160.94H115.018H115.518V160.502H115.018ZM73.6045 160.064H73.1045V160.502H73.6045H74.1045V160.064H73.6045ZM73.6045 160.502V161.002H74.0426V160.502V160.002H73.6045V160.502ZM74.0426 160.502H74.5426V160.064H74.0426H73.5426V160.502H74.0426ZM74.0426 160.064V159.564H73.6045V160.064V160.564H74.0426V160.064ZM115.237 138.447V137.447H114.237V138.447H115.237ZM115.675 138.447H116.675V137.447H115.675V138.447ZM115.675 149.204V150.204H116.675V149.204H115.675ZM114.798 138.447H115.798V137.447H114.798V138.447ZM114.36 138.447V137.447H113.36V138.447H114.36ZM114.798 148.328V149.328H115.798V148.328H114.798ZM114.798 148.766V149.766H115.798V148.766H114.798ZM115.237 148.328V149.328H116.237V148.328H115.237ZM73.6045 148.328H72.6045V149.328H73.6045V148.328ZM73.6045 147.89V146.89H72.6045V147.89H73.6045ZM73.6045 148.766V147.766H72.6045V148.766H73.6045ZM73.6045 149.204H72.6045V150.204H73.6045V149.204ZM115.675 200.684V201.684H116.675V200.684H115.675ZM115.675 189.488H116.675V188.488H115.675V189.488ZM114.36 200.684H113.36V201.684H114.36V200.684ZM114.798 190.364H115.798V189.364H114.798V190.364ZM115.237 190.364H116.237V189.364H115.237V190.364ZM114.798 189.926H115.798V188.926H114.798V189.926ZM73.6045 190.364V189.364H72.6045V190.364H73.6045ZM73.6045 190.802H72.6045V191.802H73.6045V190.802ZM73.6045 189.926H72.6045V190.926H73.6045V189.926ZM73.6045 189.488V188.488H72.6045V189.488H73.6045ZM119.371 148.328H118.371V149.328H119.371V148.328ZM118.933 148.328H117.933V149.328H118.933V148.328ZM119.371 148.766H118.371V149.766H119.371V148.766ZM119.371 138.447V137.447H118.371V138.447H119.371ZM119.809 138.447H120.809V137.447H119.809V138.447ZM159.476 148.328V149.328H160.476V148.328H159.476ZM159.476 147.89H160.476V146.89H159.476V147.89ZM159.476 148.766H160.476V147.766H159.476V148.766ZM159.476 149.204V150.204H160.476V149.204H159.476ZM118.494 149.204H117.494V150.204H118.494V149.204ZM118.933 138.447H119.933V137.447H118.933V138.447ZM118.494 138.447V137.447H117.494V138.447H118.494ZM119.809 200.684V201.684H120.809V200.684H119.809ZM119.371 190.364V189.364H118.371V190.364H119.371ZM119.371 189.926V188.926H118.371V189.926H119.371ZM118.933 190.364V189.364H117.933V190.364H118.933ZM118.494 200.684H117.494V201.684H118.494V200.684ZM118.494 189.488V188.488H117.494V189.488H118.494ZM159.476 189.926V190.926H160.476V189.926H159.476ZM159.476 189.488H160.476V188.488H159.476V189.488ZM159.476 190.364H160.476V189.364H159.476V190.364ZM159.476 190.802V191.802H160.476V190.802H159.476ZM122.435 162.975L123.162 162.288L123.161 162.287L122.435 162.975ZM122.753 162.674L123.48 161.987L123.48 161.987L122.753 162.674ZM124.473 169.17L123.473 169.192L123.473 169.192L124.473 169.17ZM124.483 169.598L123.483 169.621L123.505 170.598H124.483V169.598ZM159.077 168.722H160.077V167.722H159.077V168.722ZM159.077 170.036V171.036H160.077V170.036H159.077ZM124.483 169.16V168.16H123.505L123.483 169.138L124.483 169.16ZM124.473 169.589L123.473 169.566L123.473 169.566L124.473 169.589ZM122.435 175.783L123.162 176.47L123.162 176.47L122.435 175.783ZM122.753 176.084L123.48 176.771L123.48 176.771L122.753 176.084ZM73.6045 178.694V177.694H72.6045V178.694H73.6045ZM73.6045 179.133H72.6045V180.133H73.6045V179.133ZM73.6045 178.256H72.6045V179.256H73.6045V178.256ZM73.6045 177.818V176.818H72.6045V177.818H73.6045ZM122.116 175.483L122.843 176.17L122.843 176.17L122.116 175.483ZM122.116 163.276L122.843 162.589L122.843 162.589L122.116 163.276ZM73.6045 160.502V159.502H72.6045V160.502H73.6045ZM73.6045 160.94H72.6045V161.94H73.6045V160.94ZM73.6045 160.064H72.6045V161.064H73.6045V160.064ZM73.6045 159.626V158.626H72.6045V159.626H73.6045ZM114.36 148.328H113.36V149.328H114.36V148.328ZM114.798 147.89H115.798V146.89H114.798V147.89ZM115.237 199.808H116.237V198.808H115.237V199.808ZM114.798 199.808V198.808H113.798V199.808H114.798ZM114.36 190.364V189.364H113.36V190.364H114.36ZM114.798 190.802V191.802H115.798V190.802H114.798ZM119.809 148.328V149.328H120.809V148.328H119.809ZM119.371 147.89V146.89H118.371V147.89H119.371ZM119.809 190.364H120.809V189.364H119.809V190.364ZM119.371 199.808H120.371V198.808H119.371V199.808ZM118.933 199.808V198.808H117.933V199.808H118.933ZM119.371 190.802H118.371V191.802H119.371V190.802ZM125.349 169.15L125.371 170.15L126.371 170.128L126.349 169.128L125.349 169.15ZM124.911 168.722V167.722H123.911V168.722H124.911ZM158.201 169.16V168.16H157.201V169.16H158.201ZM158.201 169.598H157.201V170.598H158.201V169.598ZM124.911 170.036H123.911V171.036H124.911V170.036ZM125.349 169.608L126.349 169.63L126.371 168.63L125.371 168.608L125.349 169.608ZM121.798 175.182L121.071 174.494L121.071 174.495L121.798 175.182ZM121.798 163.577L122.525 162.89L122.525 162.89L121.798 163.577ZM115.237 138.447V139.447H115.675V138.447V137.447H115.237V138.447ZM115.237 149.204V150.204H115.675V149.204V148.204H115.237V149.204ZM115.675 149.204H116.675V148.766H115.675H114.675V149.204H115.675ZM114.36 138.447V139.447H114.798V138.447V137.447H114.36V138.447ZM73.6045 148.328H74.6045V147.89H73.6045H72.6045V148.328H73.6045ZM73.6045 149.204H74.6045V148.766H73.6045H72.6045V149.204H73.6045ZM115.237 200.684V201.684H115.675V200.684V199.684H115.237V200.684ZM115.675 200.684H116.675V200.246H115.675H114.675V200.684H115.675ZM115.675 189.926H116.675V189.488H115.675H114.675V189.926H115.675ZM115.675 189.488V188.488H115.237V189.488V190.488H115.675V189.488ZM114.36 200.246H113.36V200.684H114.36H115.36V200.246H114.36ZM114.36 200.684V201.684H114.798V200.684V199.684H114.36V200.684ZM73.6045 190.802H74.6045V190.364H73.6045H72.6045V190.802H73.6045ZM73.6045 189.926H74.6045V189.488H73.6045H72.6045V189.926H73.6045ZM119.371 138.447V139.447H119.809V138.447V137.447H119.371V138.447ZM159.476 147.89H158.476V148.328H159.476H160.476V147.89H159.476ZM159.476 148.766H158.476V149.204H159.476H160.476V148.766H159.476ZM118.494 148.766H117.494V149.204H118.494H119.494V148.766H118.494ZM118.494 149.204V150.204H118.933V149.204V148.204H118.494V149.204ZM118.494 138.447V139.447H118.933V138.447V137.447H118.494V138.447ZM119.371 200.684V201.684H119.809V200.684V199.684H119.371V200.684ZM119.809 200.684H120.809V200.246H119.809H118.809V200.684H119.809ZM118.494 200.246H117.494V200.684H118.494H119.494V200.246H118.494ZM118.494 200.684V201.684H118.933V200.684V199.684H118.494V200.684ZM118.933 189.488V188.488H118.494V189.488V190.488H118.933V189.488ZM118.494 189.488H117.494V189.926H118.494H119.494V189.488H118.494ZM159.476 189.488H158.476V189.926H159.476H160.476V189.488H159.476ZM159.476 190.364H158.476V190.802H159.476H160.476V190.364H159.476ZM124.473 169.17L123.473 169.192L123.483 169.621L124.483 169.598L125.483 169.576L125.473 169.147L124.473 169.17ZM124.483 169.598V170.598H124.911V169.598V168.598H124.483V169.598ZM159.077 169.16H160.077V168.722H159.077H158.077V169.16H159.077ZM159.077 168.722V167.722H158.639V168.722V169.722H159.077V168.722ZM158.639 170.036V171.036H159.077V170.036V169.036H158.639V170.036ZM159.077 170.036H160.077V169.598H159.077H158.077V170.036H159.077ZM124.911 169.16V168.16H124.483V169.16V170.16H124.911V169.16ZM124.483 169.16L123.483 169.138L123.473 169.566L124.473 169.589L125.473 169.611L125.483 169.183L124.483 169.16ZM73.6045 179.133H74.6045V178.694H73.6045H72.6045V179.133H73.6045ZM73.6045 178.256H74.6045V177.818H73.6045H72.6045V178.256H73.6045ZM73.6045 160.94H74.6045V160.502H73.6045H72.6045V160.94H73.6045ZM73.6045 160.064H74.6045V159.626H73.6045H72.6045V160.064H73.6045ZM114.798 138.447H113.798V148.766H114.798H115.798V138.447H114.798ZM115.675 148.766H116.675V138.447H115.675H114.675V148.766H115.675ZM115.237 148.328H116.237V138.447H115.237H114.237V148.328H115.237ZM114.36 138.447H113.36V148.328H114.36H115.36V138.447H114.36ZM114.36 148.328V149.328H114.798V148.328V147.328H114.36V148.328ZM73.6045 148.766V149.766H114.798V148.766V147.766H73.6045V148.766ZM114.798 148.328H115.798V147.89H114.798H113.798V148.328H114.798ZM114.798 147.89V146.89H73.6045V147.89V148.89H114.798V147.89ZM115.237 148.328V147.328H73.6045V148.328V149.328H115.237V148.328ZM73.6045 149.204V150.204H115.237V149.204V148.204H73.6045V149.204ZM115.675 200.246H116.675V189.926H115.675H114.675V200.246H115.675ZM114.798 189.926H113.798V200.246H114.798H115.798V189.926H114.798ZM114.798 200.684V201.684H115.237V200.684V199.684H114.798V200.684ZM115.237 200.246H116.237V199.808H115.237H114.237V200.246H115.237ZM115.237 199.808V198.808H114.798V199.808V200.808H115.237V199.808ZM114.798 199.808H113.798V200.246H114.798H115.798V199.808H114.798ZM114.798 190.364V189.364H114.36V190.364V191.364H114.798V190.364ZM114.36 190.364H113.36V200.246H114.36H115.36V190.364H114.36ZM115.237 200.246H116.237V190.364H115.237H114.237V200.246H115.237ZM73.6045 190.802V191.802H114.798V190.802V189.802H73.6045V190.802ZM114.798 190.802H115.798V190.364H114.798H113.798V190.802H114.798ZM114.798 189.926V188.926H73.6045V189.926V190.926H114.798V189.926ZM115.237 189.488V188.488H73.6045V189.488V190.488H115.237V189.488ZM73.6045 190.364V191.364H115.237V190.364V189.364H73.6045V190.364ZM119.371 148.328V149.328H119.809V148.328V147.328H119.371V148.328ZM119.809 148.328H120.809V138.447H119.809H118.809V148.328H119.809ZM118.933 138.447H117.933V148.328H118.933H119.933V138.447H118.933ZM159.476 147.89V146.89H119.371V147.89V148.89H159.476V147.89ZM119.371 147.89H118.371V148.328H119.371H120.371V147.89H119.371ZM119.371 148.766V149.766H159.476V148.766V147.766H119.371V148.766ZM118.933 149.204V150.204H159.476V149.204V148.204H118.933V149.204ZM159.476 148.328V147.328H118.933V148.328V149.328H159.476V148.328ZM118.494 138.447H117.494V148.766H118.494H119.494V138.447H118.494ZM119.371 148.766H120.371V138.447H119.371H118.371V148.766H119.371ZM119.809 200.246H120.809V190.364H119.809H118.809V200.246H119.809ZM119.809 190.364V189.364H119.371V190.364V191.364H119.809V190.364ZM118.933 190.364H117.933V200.246H118.933H119.933V190.364H118.933ZM118.933 200.684V201.684H119.371V200.684V199.684H118.933V200.684ZM119.371 200.246H120.371V199.808H119.371H118.371V200.246H119.371ZM119.371 199.808V198.808H118.933V199.808V200.808H119.371V199.808ZM118.933 199.808H117.933V200.246H118.933H119.933V199.808H118.933ZM118.494 189.926H117.494V200.246H118.494H119.494V189.926H118.494ZM119.371 200.246H120.371V189.926H119.371H118.371V200.246H119.371ZM159.476 189.488V188.488H118.933V189.488V190.488H159.476V189.488ZM118.933 190.364V191.364H159.476V190.364V189.364H118.933V190.364ZM119.371 190.364H118.371V190.802H119.371H120.371V190.364H119.371ZM119.371 190.802V191.802H159.476V190.802V189.802H119.371V190.802ZM159.476 189.926V188.926H119.371V189.926V190.926H159.476V189.926ZM122.753 162.674L123.48 161.987C121.526 159.922 118.658 158.626 115.018 158.626V159.626V160.626C118.157 160.626 120.483 161.73 122.027 163.361L122.753 162.674ZM115.018 160.502V161.502C117.937 161.502 120.027 162.522 121.389 163.963L122.116 163.276L122.843 162.589C121.07 160.714 118.438 159.502 115.018 159.502V160.502ZM124.911 169.16L124.933 170.16L125.371 170.15L125.349 169.15L125.327 168.151L124.889 168.16L124.911 169.16ZM125.349 169.15L126.349 169.128C126.292 166.555 125.35 163.965 123.48 161.987L122.753 162.674L122.026 163.361C123.524 164.946 124.302 167.047 124.35 169.173L125.349 169.15ZM122.116 163.276L121.389 163.963C122.725 165.375 123.43 167.263 123.473 169.192L124.473 169.17L125.473 169.147C125.42 166.771 124.55 164.395 122.843 162.589L122.116 163.276ZM124.911 169.598V170.598H158.639V169.598V168.598H124.911V169.598ZM158.639 168.722V167.722H124.911V168.722V169.722H158.639V168.722ZM124.911 168.722H123.911V169.16H124.911H125.911V168.722H124.911ZM158.639 169.16V168.16H158.201V169.16V170.16H158.639V169.16ZM158.201 169.16H157.201V169.598H158.201H159.201V169.16H158.201ZM158.201 169.598V170.598H158.639V169.598V168.598H158.201V169.598ZM159.077 169.598H160.077V169.16H159.077H158.077V169.598H159.077ZM158.639 169.16V168.16H124.911V169.16V170.16H158.639V169.16ZM124.911 169.598H123.911V170.036H124.911H125.911V169.598H124.911ZM124.911 170.036V171.036H158.639V170.036V169.036H124.911V170.036ZM122.753 176.084L123.48 176.771C125.35 174.793 126.292 172.203 126.349 169.63L125.349 169.608L124.35 169.585C124.302 171.711 123.524 173.813 122.026 175.397L122.753 176.084ZM125.349 169.608L125.371 168.608L124.933 168.598L124.911 169.598L124.889 170.598L125.327 170.608L125.349 169.608ZM124.473 169.589L123.473 169.566C123.43 171.495 122.724 173.384 121.389 174.796L122.116 175.483L122.843 176.17C124.55 174.364 125.42 171.987 125.473 169.611L124.473 169.589ZM115.018 179.133V180.133C118.658 180.133 121.526 178.836 123.48 176.771L122.753 176.084L122.027 175.397C120.483 177.028 118.157 178.133 115.018 178.133V179.133ZM122.116 175.483L121.389 174.796C120.027 176.237 117.937 177.256 115.018 177.256V178.256V179.256C118.438 179.256 121.07 178.045 122.843 176.17L122.116 175.483ZM73.6045 179.133V180.133H115.018V179.133V178.133H73.6045V179.133ZM115.018 178.256V177.256H73.6045V178.256V179.256H115.018V178.256ZM115.018 177.818V176.818H73.6045V177.818V178.818H115.018V177.818ZM73.6045 178.694V179.694H115.018V178.694V177.694H73.6045V178.694ZM121.798 175.182L121.071 174.495C119.798 175.841 117.828 176.818 115.018 176.818V177.818V178.818C118.329 178.818 120.841 177.649 122.525 175.869L121.798 175.182ZM115.018 178.694V179.694C118.548 179.694 121.299 178.44 123.162 176.47L122.435 175.783L121.708 175.096C120.256 176.632 118.047 177.694 115.018 177.694V178.694ZM124.038 169.379H123.038C123.038 171.271 122.366 173.126 121.071 174.494L121.798 175.182L122.524 175.869C124.204 174.094 125.038 171.732 125.038 169.379H124.038ZM122.435 175.783L123.162 176.47C125.008 174.517 125.914 171.934 125.914 169.379H124.914H123.914C123.914 171.473 123.171 173.549 121.708 175.096L122.435 175.783ZM121.798 163.577L121.071 164.264C122.366 165.634 123.038 167.488 123.038 169.379H124.038H125.038C125.038 167.026 124.203 164.665 122.525 162.89L121.798 163.577ZM124.914 169.379H125.914C125.914 166.824 125.008 164.241 123.162 162.288L122.435 162.975L121.708 163.661C123.171 165.209 123.914 167.285 123.914 169.379H124.914ZM115.018 160.94V161.94C117.828 161.94 119.798 162.918 121.071 164.265L121.798 163.577L122.525 162.89C120.841 161.111 118.329 159.94 115.018 159.94V160.94ZM122.435 162.975L123.161 162.287C121.299 160.318 118.549 159.064 115.018 159.064V160.064V161.064C118.048 161.064 120.256 162.126 121.709 163.662L122.435 162.975ZM73.6045 160.94V161.94H115.018V160.94V159.94H73.6045V160.94ZM115.018 160.064V159.064H73.6045V160.064V161.064H115.018V160.064ZM115.018 159.626V158.626H73.6045V159.626V160.626H115.018V159.626ZM73.6045 160.502V161.502H115.018V160.502V159.502H73.6045V160.502Z" fill="#4A615D" mask="url(#path-13-inside-4_1838_1203)"/>
</svg>
