<svg width="703" height="443" viewBox="0 0 703 443" fill="none" xmlns="http://www.w3.org/2000/svg">
    <rect width="703" height="442.19" rx="24" fill="url(#paint0_linear_0_511)" />
    <g filter="url(#filter0_ii_0_511)">
        <path fill-rule="evenodd" clip-rule="evenodd"
            d="M1.45004 426.425C0.511892 423.857 0 421.083 0 418.19V167.491C14.8235 141.25 37.5256 123.072 71.3501 123.072C113.153 123.072 136.587 152.284 161.036 182.764C189.063 217.703 218.425 254.307 278.325 250.481C346.883 245.768 374.11 191.081 401.677 135.71C419.002 100.911 436.462 65.8418 464.4 42.7377C527.612 -8.94247 678 46.831 678 282.717C678 348.292 666.716 401.324 648.83 442.19H401.326C373.427 395.592 344.526 350.264 288.011 343.096C221.765 334.748 189.559 380.807 160.264 422.702C155.592 429.383 150.995 435.958 146.345 442.19H24C15.5503 442.19 8.12055 437.823 3.8441 431.224C3.02452 429.645 2.22666 428.045 1.45004 426.425Z"
            fill="url(#paint1_linear_0_511)" />
    </g>
    <g filter="url(#filter1_d_0_511)">
        <rect x="84" y="158" width="98" height="71" rx="8" fill="url(#paint2_linear_0_511)" />
        <rect x="84.5" y="158.5" width="97" height="70" rx="7.5" stroke="#979797" />
    </g>
    <path
        d="M131.512 158H132.012V157.5H131.512V158ZM131.512 169.777V170.277H132.012V169.777H131.512ZM131.012 158V157.5H130.512V158H131.012ZM131.012 169.277V169.777H131.512V169.277H131.012ZM84 169.277V168.777H83.5V169.277H84ZM84 169.777H83.5V170.277H84V169.777ZM131.512 228.527V229.027H132.012V228.527H131.512ZM131.512 216.75H132.012V216.25H131.512V216.75ZM131.012 228.527H130.512V229.027H131.012V228.527ZM131.012 217.25H131.512V216.75H131.012V217.25ZM84 217.25H83.5V217.75H84V217.25ZM84 216.75V216.25H83.5V216.75H84ZM136.23 169.277H135.73V169.777H136.23V169.277ZM136.23 158H136.73V157.5H136.23V158ZM182 169.277H182.5V168.777H182V169.277ZM182 169.777V170.277H182.5V169.777H182ZM135.73 169.777H135.23V170.277H135.73V169.777ZM135.73 158V157.5H135.23V158H135.73ZM136.23 228.527V229.027H136.73V228.527H136.23ZM136.23 217.25V216.75H135.73V217.25H136.23ZM135.73 228.527H135.23V229.027H135.73V228.527ZM135.73 216.75V216.25H135.23V216.75H135.73ZM182 216.75H182.5V216.25H182V216.75ZM182 217.25V217.75H182.5V217.25H182ZM139.727 185.992L140.09 185.649L140.09 185.649L139.727 185.992ZM142.553 193.051L142.053 193.062L142.064 193.551H142.553V193.051ZM181.044 193.051H181.544V192.551H181.044V193.051ZM181.044 193.551V194.051H181.544V193.551H181.044ZM142.553 193.551V193.051H142.064L142.053 193.54L142.553 193.551ZM139.727 200.609L140.09 200.953L140.09 200.953L139.727 200.609ZM84 203.932H83.5V204.432H84V203.932ZM84 203.432V202.932H83.5V203.432H84ZM139.363 200.267L139.727 200.61L139.727 200.61L139.363 200.267ZM142.056 193.301L142.556 193.301L142.556 193.301L142.056 193.301ZM139.363 186.336L139.727 185.992L139.727 185.992L139.363 186.336ZM84 183.17H83.5V183.67H84V183.17ZM84 182.67V182.17H83.5V182.67H84ZM131.512 158H131.012V169.777H131.512H132.012V158H131.512ZM131.012 158V158.5H131.512V158V157.5H131.012V158ZM131.012 169.277H131.512V158H131.012H130.512V169.277H131.012ZM84 169.277V169.777H131.012V169.277V168.777H84V169.277ZM84 169.777H84.5V169.277H84H83.5V169.777H84ZM131.512 169.777V169.277H84V169.777V170.277H131.512V169.777ZM131.512 228.527H132.012V216.75H131.512H131.012V228.527H131.512ZM131.012 228.527V229.027H131.512V228.527V228.027H131.012V228.527ZM131.012 217.25H130.512V228.527H131.012H131.512V217.25H131.012ZM84 217.25V217.75H131.012V217.25V216.75H84V217.25ZM84 216.75H83.5V217.25H84H84.5V216.75H84ZM131.512 216.75V216.25H84V216.75V217.25H131.512V216.75ZM136.23 169.277H136.73V158H136.23H135.73V169.277H136.23ZM182 169.277V168.777H136.23V169.277V169.777H182V169.277ZM182 169.777H182.5V169.277H182H181.5V169.777H182ZM135.73 169.777V170.277H182V169.777V169.277H135.73V169.777ZM135.73 158H135.23V169.777H135.73H136.23V158H135.73ZM136.23 158V157.5H135.73V158V158.5H136.23V158ZM136.23 228.527H136.73V217.25H136.23H135.73V228.527H136.23ZM135.73 228.527V229.027H136.23V228.527V228.027H135.73V228.527ZM135.73 216.75H135.23V228.527H135.73H136.23V216.75H135.73ZM182 216.75V216.25H135.73V216.75V217.25H182V216.75ZM182 217.25H182.5V216.75H182H181.5V217.25H182ZM136.23 217.25V217.75H182V217.25V216.75H136.23V217.25ZM139.727 185.992L140.09 185.649C138.095 183.54 135.131 182.17 131.262 182.17V182.67V183.17C134.88 183.17 137.574 184.444 139.363 186.336L139.727 185.992ZM142.553 193.051L143.053 193.04C142.993 190.359 142.012 187.682 140.09 185.649L139.727 185.992L139.363 186.336C141.099 188.172 141.998 190.605 142.053 193.062L142.553 193.051ZM142.553 193.051V193.551H181.044V193.051V192.551H142.553V193.051ZM181.044 193.051H180.544V193.551H181.044H181.544V193.051H181.044ZM181.044 193.551V193.051H142.553V193.551V194.051H181.044V193.551ZM139.727 200.609L140.09 200.953C142.012 198.92 142.993 196.243 143.053 193.562L142.553 193.551L142.053 193.54C141.998 195.997 141.099 198.43 139.363 200.266L139.727 200.609ZM131.262 203.932V204.432C135.131 204.432 138.095 203.062 140.09 200.953L139.727 200.609L139.363 200.266C137.574 202.158 134.88 203.432 131.262 203.432V203.932ZM84 203.932V204.432H131.262V203.932V203.432H84V203.932ZM84 203.432H83.5V203.932H84H84.5V203.432H84ZM131.262 203.432V202.932H84V203.432V203.932H131.262V203.432ZM139.363 200.267L139 199.923C137.313 201.707 134.755 202.932 131.262 202.932V203.432V203.932C135.005 203.932 137.835 202.611 139.727 200.61L139.363 200.267ZM142.056 193.301H141.556C141.556 195.723 140.697 198.129 139 199.923L139.363 200.267L139.727 200.61C141.615 198.613 142.556 195.954 142.556 193.301H142.056ZM139.363 186.336L139 186.68C140.696 188.474 141.556 190.879 141.556 193.301L142.056 193.301L142.556 193.301C142.556 190.648 141.615 187.99 139.727 185.992L139.363 186.336ZM131.262 183.17V183.67C134.755 183.67 137.313 184.896 139 186.68L139.363 186.336L139.727 185.992C137.835 183.992 135.006 182.67 131.262 182.67V183.17ZM84 183.17V183.67H131.262V183.17V182.67H84V183.17ZM84 182.67H83.5V183.17H84H84.5V182.67H84ZM131.262 182.67V182.17H84V182.67V183.17H131.262V182.67Z"
        fill="#979797" />
    <path fill-rule="evenodd" clip-rule="evenodd"
        d="M101.883 39.7547C99.1387 36.9123 95.8302 35.4906 91.9587 35.4906C87.6726 35.4906 84.3825 37.0608 82.0901 40.2029V25H76V64.2713H82.0901V60.2318C84.3825 63.4115 87.6726 65 91.9587 65C95.8302 65 99.1387 63.5696 101.883 60.708C104.627 57.8472 106 54.3967 106 50.2453C106 46.094 104.627 42.5971 101.883 39.7547ZM90.9996 59.2217C88.4428 59.2217 86.3191 58.3715 84.6275 56.6694C82.9359 54.9672 82.0901 52.8256 82.0901 50.2453C82.0901 47.665 82.9359 45.5243 84.6275 43.8221C86.3191 42.1209 88.4437 41.2698 90.9996 41.2698C93.5554 41.2698 95.68 42.1209 97.3716 43.8221C99.0632 45.5243 99.909 47.6642 99.909 50.2453C99.909 52.8265 99.0632 54.9681 97.3716 56.6694C95.68 58.3715 93.5563 59.2217 90.9996 59.2217ZM139 35.7426H132.91V39.7907C130.617 36.5972 127.327 35 123.041 35C119.169 35 115.86 36.4453 113.117 39.335C110.372 42.2246 109 45.8169 109 50C109 54.1831 110.372 57.7283 113.117 60.6366C115.86 63.5458 119.169 65 123.041 65C127.327 65 130.617 63.3851 132.91 60.1525V64.2591H139V35.7426ZM124 59.1265C121.444 59.1265 119.32 58.2622 117.628 56.5317C115.937 54.8013 115.091 52.6241 115.091 50.0009C115.091 47.3777 115.937 45.2014 117.628 43.4709C119.32 41.7414 121.445 40.8762 124 40.8762C126.556 40.8762 128.681 41.7414 130.372 43.4709C132.064 45.2014 132.91 47.3768 132.91 50.0009C132.91 52.625 132.064 54.8022 130.372 56.5317C128.681 58.2622 126.557 59.1265 124 59.1265ZM152.683 45.8664C151.673 45.3156 151.168 44.5641 151.168 43.6137L151.168 43.6128C151.168 42.6241 151.554 41.8735 152.326 41.3601C153.098 40.8467 154.054 40.59 155.194 40.59C157.693 40.59 159.421 41.6737 160.377 43.8411L165.395 40.932C164.439 39.0692 163.07 37.6151 161.287 36.5687C159.503 35.5232 157.472 35 155.194 35C152.326 35 149.927 35.7986 147.998 37.3957C146.068 38.9928 145.103 41.1025 145.103 43.7265C145.103 45.6283 145.608 47.1961 146.619 48.4317C147.63 49.6673 148.871 50.5512 150.341 51.0833C151.811 51.6162 153.273 52.0817 154.725 52.4805C156.177 52.8803 157.408 53.3653 158.419 53.9355C159.429 54.5058 159.935 55.2475 159.935 56.1598C159.935 58.2899 158.374 59.3541 155.249 59.3541C152.123 59.3541 150.084 57.9852 149.128 55.2475L144 58.3272C144.883 60.4191 146.297 62.0545 148.246 63.2323C150.194 64.4102 152.528 65 155.249 65C158.336 65 160.9 64.2219 162.94 62.662C164.98 61.104 166 58.9552 166 56.2175C166 54.2784 165.494 52.6733 164.483 51.3986C163.472 50.1248 162.231 49.2223 160.761 48.6893C159.291 48.1573 157.829 47.6918 156.378 47.2921C154.925 46.8932 153.694 46.418 152.683 45.8664ZM177.46 57.6146C175.845 56.4553 174.814 54.7915 174.363 52.6241L174.362 52.6232H196.775C196.925 51.5599 197 50.7044 197 50.0569C197 45.8747 195.677 42.3206 193.03 39.3918C190.383 36.4639 186.995 35 182.866 35C178.511 35 174.945 36.4364 172.167 39.3065C169.388 42.1775 168 45.665 168 50C168 54.335 169.408 57.9193 172.223 60.7512C175.038 63.584 178.736 65 183.316 65C188.759 65 192.87 62.9285 195.648 58.7836L190.637 55.8175C189.022 58.176 186.601 59.3539 183.372 59.3539C181.045 59.3539 179.074 58.7747 177.46 57.6146ZM190.862 47.6051H174.307C174.719 45.4385 175.677 43.7276 177.178 42.4725C178.68 41.2173 180.558 40.5901 182.81 40.5901C184.799 40.5901 186.536 41.18 188.019 42.3579C189.501 43.5375 190.448 45.2866 190.862 47.6051ZM223.91 25H230V64.2713H223.91V60.2318C221.617 63.4115 218.327 65 214.041 65C210.169 65 206.86 63.5696 204.117 60.708C201.372 57.8472 200 54.36 200 50.2453C200 46.1307 201.372 42.5971 204.117 39.7547C206.86 36.9123 210.169 35.4906 214.041 35.4906C218.327 35.4906 221.617 37.0617 223.91 40.2029V25ZM208.628 56.6694C210.32 58.3715 212.444 59.2217 215 59.2217C217.557 59.2217 219.681 58.3715 221.372 56.6694C223.064 54.9681 223.91 52.8265 223.91 50.2453C223.91 47.6642 223.064 45.5243 221.372 43.8221C219.681 42.1209 217.556 41.2698 215 41.2698C212.445 41.2698 210.32 42.1209 208.628 43.8221C206.937 45.5243 206.091 47.665 206.091 50.2453C206.091 52.8256 206.937 54.9672 208.628 56.6694Z"
        fill="white" />
    <path fill-rule="evenodd" clip-rule="evenodd"
        d="M669.12 73.0258C668.351 72.7992 667.563 71.8826 667.395 71.0054C667.287 70.4338 667.415 70.0395 668.233 68.4528C671.544 62.0465 672.983 56.1528 672.983 49.0074C672.983 42.0985 671.712 36.7173 668.548 30.2716C667.868 28.8918 667.316 27.6007 667.316 27.4135C667.316 26.7236 667.888 25.7281 668.509 25.3438C669.356 24.8116 670.785 24.9101 671.475 25.5507C671.741 25.7971 672.421 26.9207 672.993 28.0442C675.26 32.4892 676.807 37.3678 677.576 42.4435C678.049 45.5875 678.148 51.5403 677.763 54.4182C677.063 59.7206 675.664 64.4612 673.417 69.0934C672.057 71.8924 671.209 73.0455 670.5 73.0455C670.362 73.0455 670.125 73.085 669.987 73.1244C669.849 73.1638 669.455 73.1244 669.12 73.0258V73.0258V73.0258Z"
        fill="white" />
    <path fill-rule="evenodd" clip-rule="evenodd"
        d="M659.905 68.2064C658.722 67.8615 657.865 66.4028 658.209 65.3187C658.288 65.0526 658.85 63.8403 659.451 62.6182C661.984 57.4439 663.039 51.905 662.526 46.4647C662.103 41.9901 661.304 39.1714 659.284 35.0517C657.934 32.2822 657.865 31.8584 658.653 30.7349C659.402 29.6705 661.275 29.5029 662.25 30.3998C662.93 31.0207 665.049 35.4459 665.867 37.9493C668.568 46.2281 668.154 55.1278 664.695 63.2588C662.911 67.4278 661.659 68.7189 659.905 68.2064V68.2064Z"
        fill="white" />
    <path fill-rule="evenodd" clip-rule="evenodd"
        d="M650.404 63.318C649.674 62.9927 649.044 62.2141 648.866 61.4355C648.758 60.9625 648.945 60.4303 649.812 58.6759C653.006 52.2106 653.035 45.9916 649.921 39.6741C648.551 36.9046 648.521 36.3527 649.674 35.2587C650.246 34.7166 650.492 34.6279 651.291 34.6279C652.641 34.6279 653.341 35.308 654.543 37.7818C656.396 41.5861 657.155 44.8878 657.145 49.1159C657.135 53.4622 656.426 56.4485 654.454 60.4598C653.321 62.7562 652.759 63.3673 651.626 63.5151C651.281 63.5447 650.729 63.4658 650.404 63.318V63.318V63.318Z"
        fill="white" />
    <path fill-rule="evenodd" clip-rule="evenodd"
        d="M641.534 58.7646C640.952 58.5281 640.292 57.7396 640.095 57.0497C639.878 56.281 640.055 55.6699 640.922 54.2408C642.046 52.3978 642.302 51.4122 642.302 49.0074C642.302 46.6026 642.046 45.6072 640.922 43.774C640.538 43.1531 640.164 42.4041 640.075 42.1084C639.71 40.8961 640.725 39.4079 642.085 39.1517C643.239 38.9349 644.027 39.4474 645.091 41.1031C648.157 45.893 648.157 52.2795 645.091 57.03C644.007 58.6956 642.805 59.287 641.534 58.7646V58.7646V58.7646Z"
        fill="white" />
    <path
        d="M57.9998 38.9906C57.9998 41.6079 57.1752 44.03 55.7784 46C53.6392 42.9821 50.1534 41.0192 46.2173 41.0192C41.0632 41.0192 36.3379 42.888 32.6624 46C27.9814 42.0375 25 36.0673 25 29.3879V27H46.2175C49.4707 27 52.417 28.3424 54.5496 30.5126C56.6802 32.6805 58 35.6804 58 38.9906"
        fill="white" />
    <path opacity="0.6"
        d="M57.9998 53.0088C57.9998 56.3198 56.68 59.318 54.5494 61.4866C52.417 63.6573 49.4705 65 46.2173 65H25V62.6115C25 55.9307 27.9814 49.9592 32.6626 46C36.3384 49.1084 41.0634 50.98 46.2175 50.98C50.1536 50.98 53.6371 49.0165 55.7786 46C57.1755 47.9705 58 50.3931 58 53.009"
        fill="white" />
    <path
        d="M582 340.001L562.001 389H548.953L539.111 349.896C538.514 347.488 537.994 346.606 536.177 345.591C533.21 343.938 528.311 342.387 524 341.425L524.293 340.001H545.296C547.973 340.001 550.38 341.831 550.988 344.997L556.186 373.35L569.032 340L582 340.001ZM633.691 373.455C633.744 360.691 616.042 359.988 616.164 354.286C616.202 352.551 617.854 350.706 621.47 350.235C623.263 350 628.201 349.821 633.803 352.399L636 342.144C632.99 341.051 629.117 340 624.299 340C611.934 340 603.232 346.573 603.159 355.986C603.079 362.948 609.37 366.833 614.109 369.146C618.985 371.515 620.621 373.038 620.603 375.157C620.568 378.401 616.714 379.833 613.112 379.889C606.824 379.986 603.176 378.188 600.267 376.836L598 387.43C600.923 388.771 606.318 389.941 611.911 390C625.053 390 633.65 383.508 633.691 373.455ZM666.397 389H678L667.872 340H657.163C654.755 340 652.724 341.417 651.825 343.595L633 389H646.173L648.788 381.681H664.883L666.397 389ZM653 372L659.347 354L663 372H653ZM600 340L589.589 389H577L587.415 340H600ZM580.07 417V399.52H585.843C587.714 399.52 589.201 399.965 590.305 400.854C591.409 401.743 591.961 403.085 591.961 404.879C591.961 406.688 591.409 408.034 590.305 408.915C589.201 409.797 587.714 410.238 585.843 410.238H582.324V417H580.07ZM585.521 401.337H582.324V408.49H585.521C586.84 408.49 587.852 408.218 588.557 407.674C589.262 407.129 589.615 406.205 589.615 404.902C589.615 403.614 589.262 402.698 588.557 402.153C587.852 401.609 586.84 401.337 585.521 401.337ZM596.837 398.83V417H594.79V398.83H596.837ZM600.471 406.88L600.701 404.879C601.192 404.542 601.805 404.258 602.541 404.028C603.277 403.798 604.082 403.683 604.956 403.683C606.627 403.683 607.869 404.013 608.682 404.672C609.495 405.331 609.901 406.42 609.901 407.938V417H607.946V414.516H607.854C607.517 415.482 606.995 416.191 606.29 416.644C605.585 417.096 604.703 417.322 603.645 417.322C602.924 417.322 602.261 417.188 601.656 416.92C601.05 416.651 600.563 416.245 600.195 415.701C599.827 415.156 599.643 414.462 599.643 413.619C599.643 412.776 599.819 412.097 600.172 411.583C600.525 411.07 601.019 410.675 601.656 410.399C602.292 410.123 603.055 409.908 603.944 409.755C605.033 409.571 605.895 409.402 606.532 409.249C607.168 409.096 607.624 408.889 607.9 408.628V408.03C607.9 407.079 607.681 406.389 607.244 405.96C606.807 405.531 605.991 405.316 604.795 405.316C604.028 405.316 603.273 405.446 602.529 405.707C601.786 405.968 601.115 406.359 600.517 406.88H600.471ZM607.877 412.63V409.939C607.632 410.154 607.198 410.342 606.577 410.503C605.956 410.664 605.186 410.828 604.266 410.997C603.484 411.12 602.851 411.35 602.368 411.687C601.885 412.024 601.644 412.622 601.644 413.481C601.644 414.263 601.87 414.842 602.323 415.217C602.775 415.593 603.4 415.781 604.197 415.781C604.964 415.781 605.623 415.62 606.175 415.298C606.727 414.976 607.149 414.573 607.44 414.09C607.731 413.607 607.877 413.121 607.877 412.63ZM616.272 413.504C616.272 414.332 616.448 414.888 616.801 415.172C617.154 415.455 617.614 415.597 618.181 415.597C618.702 415.597 619.155 415.551 619.538 415.459C619.921 415.367 620.236 415.26 620.481 415.137H620.55L620.366 416.862C620.136 416.985 619.791 417.092 619.331 417.184C618.871 417.276 618.403 417.322 617.928 417.322C616.778 417.322 615.873 417.05 615.214 416.506C614.555 415.961 614.225 415.068 614.225 413.826V405.684H611.833L612.109 404.35L614.225 404.051V401.268L616.272 400.969V404.005H620.251L619.998 405.684H616.272V413.504ZM622.436 400.831C622.436 400.494 622.555 400.214 622.792 399.992C623.03 399.769 623.333 399.658 623.701 399.658C624.069 399.658 624.376 399.769 624.621 399.992C624.866 400.214 624.989 400.494 624.989 400.831C624.989 401.184 624.866 401.471 624.621 401.694C624.376 401.916 624.069 402.027 623.701 402.027C623.333 402.027 623.03 401.916 622.792 401.694C622.555 401.471 622.436 401.184 622.436 400.831ZM624.736 404.005V417H622.689V404.005H624.736ZM634.304 405.454C633.583 405.454 632.928 405.6 632.338 405.891C631.747 406.182 631.28 406.596 630.935 407.133C630.59 407.67 630.417 408.306 630.417 409.042V417H628.37V404.005H630.325V406.765H630.44C630.685 406.029 631.057 405.435 631.555 404.982C632.054 404.53 632.613 404.2 633.234 403.993C633.855 403.786 634.465 403.683 635.063 403.683C636.474 403.683 637.578 404.043 638.375 404.764C639.172 405.485 639.571 406.612 639.571 408.145V417H637.547V408.72C637.547 407.631 637.313 406.815 636.846 406.271C636.378 405.726 635.531 405.454 634.304 405.454ZM648.311 415.551C649.016 415.551 649.664 415.405 650.255 415.114C650.845 414.823 651.316 414.409 651.669 413.872C652.022 413.335 652.198 412.707 652.198 411.986V404.005H654.245V417H652.29V414.263H652.198C651.937 414.999 651.562 415.593 651.071 416.046C650.58 416.498 650.028 416.824 649.415 417.023C648.802 417.222 648.196 417.322 647.598 417.322C646.187 417.322 645.076 416.954 644.263 416.218C643.45 415.482 643.044 414.347 643.044 412.814V404.005H645.091V412.354C645.091 413.458 645.321 414.267 645.781 414.781C646.241 415.294 647.084 415.551 648.311 415.551ZM663.606 405.454C662.916 405.454 662.287 405.596 661.72 405.88C661.153 406.163 660.704 406.573 660.374 407.11C660.045 407.647 659.88 408.275 659.88 408.996V417H657.833V404.005H659.788V406.811H659.903C660.148 406.06 660.509 405.458 660.984 405.006C661.459 404.553 661.992 404.22 662.582 404.005C663.173 403.79 663.767 403.683 664.365 403.683C665.53 403.683 666.469 403.94 667.182 404.453C667.895 404.967 668.359 405.753 668.574 406.811H668.666C668.911 406.06 669.279 405.458 669.77 405.006C670.261 404.553 670.809 404.22 671.414 404.005C672.02 403.79 672.622 403.683 673.22 403.683C674.615 403.683 675.689 404.059 676.44 404.81C677.191 405.561 677.567 406.696 677.567 408.214V417H675.52V408.628C675.52 407.524 675.317 406.719 674.91 406.213C674.504 405.707 673.688 405.454 672.461 405.454C671.403 405.454 670.518 405.757 669.805 406.363C669.092 406.968 668.735 407.846 668.735 408.996V417H666.688V408.628C666.688 407.524 666.481 406.719 666.067 406.213C665.653 405.707 664.833 405.454 663.606 405.454Z"
        fill="white" />
    <defs>
        <filter id="filter0_ii_0_511" x="-8" y="25" width="686" height="425.19" filterUnits="userSpaceOnUse"
            color-interpolation-filters="sRGB">
            <feFlood flood-opacity="0" result="BackgroundImageFix" />
            <feBlend mode="normal" in="SourceGraphic" in2="BackgroundImageFix" result="shape" />
            <feColorMatrix in="SourceAlpha" type="matrix" values="0 0 0 0 0 0 0 0 0 0 0 0 0 0 0 0 0 0 127 0"
                result="hardAlpha" />
            <feOffset dx="-8" dy="8" />
            <feGaussianBlur stdDeviation="12.5" />
            <feComposite in2="hardAlpha" operator="arithmetic" k2="-1" k3="1" />
            <feColorMatrix type="matrix" values="0 0 0 0 0.98931 0 0 0 0 1 0 0 0 0 0.99746 0 0 0 0.25 0" />
            <feBlend mode="normal" in2="shape" result="effect1_innerShadow_0_511" />
            <feColorMatrix in="SourceAlpha" type="matrix" values="0 0 0 0 0 0 0 0 0 0 0 0 0 0 0 0 0 0 127 0"
                result="hardAlpha" />
            <feOffset />
            <feGaussianBlur stdDeviation="2.5" />
            <feComposite in2="hardAlpha" operator="arithmetic" k2="-1" k3="1" />
            <feColorMatrix type="matrix" values="0 0 0 0 1 0 0 0 0 1 0 0 0 0 1 0 0 0 0.25 0" />
            <feBlend mode="normal" in2="effect1_innerShadow_0_511" result="effect2_innerShadow_0_511" />
        </filter>
        <filter id="filter1_d_0_511" x="83" y="157" width="100" height="73" filterUnits="userSpaceOnUse"
            color-interpolation-filters="sRGB">
            <feFlood flood-opacity="0" result="BackgroundImageFix" />
            <feColorMatrix in="SourceAlpha" type="matrix" values="0 0 0 0 0 0 0 0 0 0 0 0 0 0 0 0 0 0 127 0"
                result="hardAlpha" />
            <feOffset />
            <feGaussianBlur stdDeviation="0.5" />
            <feColorMatrix type="matrix" values="0 0 0 0 0 0 0 0 0 0 0 0 0 0 0 0 0 0 0.25 0" />
            <feBlend mode="normal" in2="BackgroundImageFix" result="effect1_dropShadow_0_511" />
            <feBlend mode="normal" in="SourceGraphic" in2="effect1_dropShadow_0_511" result="shape" />
        </filter>
        <linearGradient id="paint0_linear_0_511" x1="216.564" y1="578.76" x2="511.037" y2="193.752"
            gradientUnits="userSpaceOnUse">
            <stop stop-color="#02100F" />
            <stop offset="0.9997" stop-color="#0E2823" />
        </linearGradient>
        <linearGradient id="paint1_linear_0_511" x1="678" y1="442.19" x2="678" y2="25" gradientUnits="userSpaceOnUse">
            <stop stop-color="white" stop-opacity="0.01" />
            <stop offset="1" stop-color="#97FCE4" stop-opacity="0.15" />
        </linearGradient>
        <linearGradient id="paint2_linear_0_511" x1="131.359" y1="259.671" x2="196.026" y2="173.438"
            gradientUnits="userSpaceOnUse">
            <stop stop-color="#AAACAD" />
            <stop offset="0.508741" stop-color="#DDDEDF" />
            <stop offset="1" stop-color="#AAACAD" />
        </linearGradient>
    </defs>
</svg>